<svg width="440" height="147" viewBox="0 0 440 147" fill="none" xmlns="http://www.w3.org/2000/svg">
<path d="M147.75 40.94C149.97 40.94 151.91 41.38 153.57 42.26C155.23 43.14 156.51 44.38 157.41 45.98C158.33 47.56 158.79 49.39 158.79 51.47C158.79 53.53 158.33 55.36 157.41 56.96C156.51 58.56 155.22 59.8 153.54 60.68C151.88 61.56 149.95 62 147.75 62H139.86V40.94H147.75ZM147.42 57.56C149.36 57.56 150.87 57.03 151.95 55.97C153.03 54.91 153.57 53.41 153.57 51.47C153.57 49.53 153.03 48.02 151.95 46.94C150.87 45.86 149.36 45.32 147.42 45.32H144.99V57.56H147.42ZM166.787 40.94V62H161.657V40.94H166.787ZM189.345 62H184.215L175.635 49.01V62H170.505V40.94H175.635L184.215 53.99V40.94H189.345V62ZM206.173 58.28H198.313L197.053 62H191.683L199.303 40.94H205.243L212.863 62H207.433L206.173 58.28ZM204.853 54.32L202.243 46.61L199.663 54.32H204.853ZM222.802 62.21C221.262 62.21 219.882 61.96 218.662 61.46C217.442 60.96 216.462 60.22 215.722 59.24C215.002 58.26 214.622 57.08 214.582 55.7H220.042C220.122 56.48 220.392 57.08 220.852 57.5C221.312 57.9 221.912 58.1 222.652 58.1C223.412 58.1 224.012 57.93 224.452 57.59C224.892 57.23 225.112 56.74 225.112 56.12C225.112 55.6 224.932 55.17 224.572 54.83C224.232 54.49 223.802 54.21 223.282 53.99C222.782 53.77 222.062 53.52 221.122 53.24C219.762 52.82 218.652 52.4 217.792 51.98C216.932 51.56 216.192 50.94 215.572 50.12C214.952 49.3 214.642 48.23 214.642 46.91C214.642 44.95 215.352 43.42 216.772 42.32C218.192 41.2 220.042 40.64 222.322 40.64C224.642 40.64 226.512 41.2 227.932 42.32C229.352 43.42 230.112 44.96 230.212 46.94H224.662C224.622 46.26 224.372 45.73 223.912 45.35C223.452 44.95 222.862 44.75 222.142 44.75C221.522 44.75 221.022 44.92 220.642 45.26C220.262 45.58 220.072 46.05 220.072 46.67C220.072 47.35 220.392 47.88 221.032 48.26C221.672 48.64 222.672 49.05 224.032 49.49C225.392 49.95 226.492 50.39 227.332 50.81C228.192 51.23 228.932 51.84 229.552 52.64C230.172 53.44 230.482 54.47 230.482 55.73C230.482 56.93 230.172 58.02 229.552 59C228.952 59.98 228.072 60.76 226.912 61.34C225.752 61.92 224.382 62.21 222.802 62.21ZM252.207 62L245.127 52.7V62H239.997V40.94H245.127V50.18L252.147 40.94H258.177L250.017 51.26L258.477 62H252.207ZM270.875 62.21C268.895 62.21 267.075 61.75 265.415 60.83C263.775 59.91 262.465 58.63 261.485 56.99C260.525 55.33 260.045 53.47 260.045 51.41C260.045 49.35 260.525 47.5 261.485 45.86C262.465 44.22 263.775 42.94 265.415 42.02C267.075 41.1 268.895 40.64 270.875 40.64C272.855 40.64 274.665 41.1 276.305 42.02C277.965 42.94 279.265 44.22 280.205 45.86C281.165 47.5 281.645 49.35 281.645 51.41C281.645 53.47 281.165 55.33 280.205 56.99C279.245 58.63 277.945 59.91 276.305 60.83C274.665 61.75 272.855 62.21 270.875 62.21ZM270.875 57.53C272.555 57.53 273.895 56.97 274.895 55.85C275.915 54.73 276.425 53.25 276.425 51.41C276.425 49.55 275.915 48.07 274.895 46.97C273.895 45.85 272.555 45.29 270.875 45.29C269.175 45.29 267.815 45.84 266.795 46.94C265.795 48.04 265.295 49.53 265.295 51.41C265.295 53.27 265.795 54.76 266.795 55.88C267.815 56.98 269.175 57.53 270.875 57.53ZM308.349 40.94V62H303.219V49.37L298.509 62H294.369L289.629 49.34V62H284.499V40.94H290.559L296.469 55.52L302.319 40.94H308.349ZM317.078 40.94V53.54C317.078 54.8 317.388 55.77 318.008 56.45C318.628 57.13 319.538 57.47 320.738 57.47C321.938 57.47 322.858 57.13 323.498 56.45C324.138 55.77 324.458 54.8 324.458 53.54V40.94H329.588V53.51C329.588 55.39 329.188 56.98 328.388 58.28C327.588 59.58 326.508 60.56 325.148 61.22C323.808 61.88 322.308 62.21 320.648 62.21C318.988 62.21 317.498 61.89 316.178 61.25C314.878 60.59 313.848 59.61 313.088 58.31C312.328 56.99 311.948 55.39 311.948 53.51V40.94H317.078ZM352.03 62H346.9L338.32 49.01V62H333.19V40.94H338.32L346.9 53.99V40.94H352.03V62ZM360.879 40.94V62H355.749V40.94H360.879ZM376.806 62L369.726 52.7V62H364.596V40.94H369.726V50.18L376.746 40.94H382.776L374.616 51.26L383.076 62H376.806ZM398.624 58.28H390.764L389.504 62H384.134L391.754 40.94H397.694L405.314 62H399.884L398.624 58.28ZM397.304 54.32L394.694 46.61L392.114 54.32H397.304ZM415.253 62.21C413.713 62.21 412.333 61.96 411.113 61.46C409.893 60.96 408.913 60.22 408.173 59.24C407.453 58.26 407.073 57.08 407.033 55.7H412.493C412.573 56.48 412.843 57.08 413.303 57.5C413.763 57.9 414.363 58.1 415.103 58.1C415.863 58.1 416.463 57.93 416.903 57.59C417.343 57.23 417.563 56.74 417.563 56.12C417.563 55.6 417.383 55.17 417.023 54.83C416.683 54.49 416.253 54.21 415.733 53.99C415.233 53.77 414.513 53.52 413.573 53.24C412.213 52.82 411.103 52.4 410.243 51.98C409.383 51.56 408.643 50.94 408.023 50.12C407.403 49.3 407.093 48.23 407.093 46.91C407.093 44.95 407.803 43.42 409.223 42.32C410.643 41.2 412.493 40.64 414.773 40.64C417.093 40.64 418.963 41.2 420.383 42.32C421.803 43.42 422.563 44.96 422.663 46.94H417.113C417.073 46.26 416.823 45.73 416.363 45.35C415.903 44.95 415.313 44.75 414.593 44.75C413.973 44.75 413.473 44.92 413.093 45.26C412.713 45.58 412.523 46.05 412.523 46.67C412.523 47.35 412.843 47.88 413.483 48.26C414.123 48.64 415.123 49.05 416.483 49.49C417.843 49.95 418.943 50.39 419.783 50.81C420.643 51.23 421.383 51.84 422.003 52.64C422.623 53.44 422.933 54.47 422.933 55.73C422.933 56.93 422.623 58.02 422.003 59C421.403 59.98 420.523 60.76 419.363 61.34C418.203 61.92 416.833 62.21 415.253 62.21ZM431.22 40.94V62H426.09V40.94H431.22ZM147.75 85.94C149.97 85.94 151.91 86.38 153.57 87.26C155.23 88.14 156.51 89.38 157.41 90.98C158.33 92.56 158.79 94.39 158.79 96.47C158.79 98.53 158.33 100.36 157.41 101.96C156.51 103.56 155.22 104.8 153.54 105.68C151.88 106.56 149.95 107 147.75 107H139.86V85.94H147.75ZM147.42 102.56C149.36 102.56 150.87 102.03 151.95 100.97C153.03 99.91 153.57 98.41 153.57 96.47C153.57 94.53 153.03 93.02 151.95 91.94C150.87 90.86 149.36 90.32 147.42 90.32H144.99V102.56H147.42ZM174.767 103.28H166.907L165.647 107H160.277L167.897 85.94H173.837L181.457 107H176.027L174.767 103.28ZM173.447 99.32L170.837 91.61L168.257 99.32H173.447ZM202.616 107H197.486L188.906 94.01V107H183.776V85.94H188.906L197.486 98.99V85.94H202.616V107ZM217.822 85.94V107H212.692V85.94H217.822ZM240.38 107H235.25L226.67 94.01V107H221.54V85.94H226.67L235.25 98.99V85.94H240.38V107ZM257.808 85.94V90.05H249.228V94.49H255.648V98.48H249.228V107H244.098V85.94H257.808ZM270.465 107.21C268.485 107.21 266.665 106.75 265.005 105.83C263.365 104.91 262.055 103.63 261.075 101.99C260.115 100.33 259.635 98.47 259.635 96.41C259.635 94.35 260.115 92.5 261.075 90.86C262.055 89.22 263.365 87.94 265.005 87.02C266.665 86.1 268.485 85.64 270.465 85.64C272.445 85.64 274.255 86.1 275.895 87.02C277.555 87.94 278.855 89.22 279.795 90.86C280.755 92.5 281.235 94.35 281.235 96.41C281.235 98.47 280.755 100.33 279.795 101.99C278.835 103.63 277.535 104.91 275.895 105.83C274.255 106.75 272.445 107.21 270.465 107.21ZM270.465 102.53C272.145 102.53 273.485 101.97 274.485 100.85C275.505 99.73 276.015 98.25 276.015 96.41C276.015 94.55 275.505 93.07 274.485 91.97C273.485 90.85 272.145 90.29 270.465 90.29C268.765 90.29 267.405 90.84 266.385 91.94C265.385 93.04 264.885 94.53 264.885 96.41C264.885 98.27 265.385 99.76 266.385 100.88C267.405 101.98 268.765 102.53 270.465 102.53ZM294.829 107L290.449 99.05H289.219V107H284.089V85.94H292.699C294.359 85.94 295.769 86.23 296.929 86.81C298.109 87.39 298.989 88.19 299.569 89.21C300.149 90.21 300.439 91.33 300.439 92.57C300.439 93.97 300.039 95.22 299.239 96.32C298.459 97.42 297.299 98.2 295.759 98.66L300.619 107H294.829ZM289.219 95.42H292.399C293.339 95.42 294.039 95.19 294.499 94.73C294.979 94.27 295.219 93.62 295.219 92.78C295.219 91.98 294.979 91.35 294.499 90.89C294.039 90.43 293.339 90.2 292.399 90.2H289.219V95.42ZM327.509 85.94V107H322.379V94.37L317.669 107H313.529L308.789 94.34V107H303.659V85.94H309.719L315.629 100.52L321.479 85.94H327.509ZM344.308 103.28H336.448L335.188 107H329.818L337.438 85.94H343.378L350.998 107H345.568L344.308 103.28ZM342.988 99.32L340.378 91.61L337.798 99.32H342.988ZM368.467 85.94V90.05H362.887V107H357.757V90.05H352.177V85.94H368.467ZM376.172 85.94V107H371.042V85.94H376.172ZM392.099 107L385.019 97.7V107H379.889V85.94H385.019V95.18L392.039 85.94H398.069L389.909 96.26L398.369 107H392.099ZM413.917 103.28H406.057L404.797 107H399.427L407.047 85.94H412.987L420.607 107H415.177L413.917 103.28ZM412.597 99.32L409.987 91.61L407.407 99.32H412.597Z" fill="#010101"/>
<path opacity="0.98" fill-rule="evenodd" clip-rule="evenodd" d="M6 3C45.68 3.0333 85.36 3.06885 125.04 3.10667C120.237 49.5785 115.419 96.0496 110.587 142.52C95.5689 142.662 80.5289 142.733 65.4667 142.733C50.4193 142.733 35.3793 142.698 20.3467 142.627C15.5782 96.0803 10.796 49.538 6 3Z" fill="#010101"/>
<path fill-rule="evenodd" clip-rule="evenodd" d="M9.09338 5.77332C46.7112 5.80344 84.3289 5.839 121.947 5.87998C117.344 50.5757 112.722 95.269 108.08 139.96C79.6712 139.96 51.2622 139.96 22.8534 139.96C18.2667 95.2311 13.6801 50.5022 9.09338 5.77332Z" fill="#FDFDFD"/>
<path fill-rule="evenodd" clip-rule="evenodd" d="M13.36 8.97333C48.0978 8.97333 82.8355 8.97333 117.573 8.97333C115.757 27.6403 113.925 46.307 112.08 64.9733C111.905 65.5288 111.798 66.0977 111.76 66.68C109.831 84.7754 107.929 102.873 106.053 120.973C79.0667 120.973 52.08 120.973 25.0933 120.973C23.2268 102.628 21.3601 84.2813 19.4933 65.9333C17.5304 48.5278 15.6104 31.1056 13.7333 13.6667C13.5382 12.1073 13.4137 10.5429 13.36 8.97333Z" fill="#010101"/>
<path fill-rule="evenodd" clip-rule="evenodd" d="M116.293 10.5733C82.4088 10.4311 48.5245 10.4311 14.64 10.5733C14.5821 10.5669 14.5466 10.5314 14.5333 10.4666C48.4888 10.3244 82.4445 10.3244 116.4 10.4666C116.387 10.5314 116.351 10.5669 116.293 10.5733Z" fill="#D82918"/>
<path fill-rule="evenodd" clip-rule="evenodd" d="M116.293 10.5733C113.993 15.2563 110.899 19.363 107.013 22.8933C102.058 27.2042 96.476 30.5108 90.2667 32.8133C79.5497 36.6507 68.5274 37.9307 57.2 36.6533C46.9214 35.5506 37.4636 32.2084 28.8267 26.6267C23.8527 23.1818 19.7105 18.9328 16.4 13.88C15.7564 12.8059 15.1697 11.7037 14.64 10.5733C48.5245 10.4311 82.4089 10.4311 116.293 10.5733Z" fill="#E82C1A"/>
<path fill-rule="evenodd" clip-rule="evenodd" d="M92.72 64.44C87.4047 64.5465 82.0714 64.5821 76.72 64.5467C62.96 64.5467 49.2 64.5467 35.44 64.5467C35.44 62.52 35.44 60.4933 35.44 58.4667C38.1069 58.4845 40.7735 58.4667 43.44 58.4133C44.6592 57.8686 45.7969 57.1931 46.8533 56.3867C49.3894 54.1063 51.985 51.9019 54.64 49.7733C59.4268 46.4332 64.7245 45.2242 70.5333 46.1467C75.915 46.5533 80.7505 48.3666 85.04 51.5867C88.9482 55.0445 91.5082 59.3289 92.72 64.44Z" fill="#1C0FB6"/>
<path fill-rule="evenodd" clip-rule="evenodd" d="M92.72 64.44C92.778 64.4464 92.8135 64.4819 92.8267 64.5467C87.4402 64.6886 82.0713 64.6886 76.72 64.5467C82.0714 64.5821 87.4047 64.5466 92.72 64.44Z" fill="#08032B"/>
<path fill-rule="evenodd" clip-rule="evenodd" d="M45.1467 65.2933C58.5512 65.2933 71.9556 65.2933 85.36 65.2933C85.4312 65.5407 85.449 65.7897 85.4134 66.04C84.7647 67.0087 84.4981 68.0754 84.6134 69.24C84.4205 69.241 84.2427 69.1876 84.08 69.08C83.5052 68.6118 82.9007 68.1852 82.2667 67.8C81.5729 67.5439 80.8618 67.3483 80.1334 67.2133C79.6869 67.2716 79.2602 67.3961 78.8534 67.5867C78.0712 68.12 77.2889 68.6533 76.5067 69.1867C75.8432 69.4842 75.1676 69.5198 74.48 69.2933C73.52 68.76 72.56 68.2267 71.6 67.6933C70.5943 67.1745 69.5631 67.1034 68.5067 67.48C67.2532 68.1779 65.9732 68.8179 64.6667 69.4C64.0651 69.4965 63.4784 69.4432 62.9067 69.24C61.9405 68.7659 60.9983 68.2503 60.08 67.6933C59.2148 67.3013 58.3259 67.2302 57.4134 67.48C56.5788 67.8795 55.761 68.3061 54.96 68.76C54.0633 69.2723 53.1388 69.3435 52.1867 68.9733C50.976 68.3145 49.7317 67.7455 48.4534 67.2667C47.5919 67.0809 46.8097 67.2409 46.1067 67.7467C45.7933 67.2368 45.4555 66.739 45.0934 66.2533C45.0406 65.93 45.0583 65.61 45.1467 65.2933Z" fill="#FCFCFC"/>
<path fill-rule="evenodd" clip-rule="evenodd" d="M41.52 118.093C41.52 118.769 41.52 119.445 41.52 120.12C36.2933 120.12 31.0667 120.12 25.84 120.12C24.0261 101.948 22.1773 83.779 20.2933 65.6133C25.769 65.5955 31.2446 65.6133 36.72 65.6666C34.1715 68.0798 34.0292 70.6398 36.2933 73.3466C36.7072 73.708 37.1339 74.0457 37.5733 74.36C36.0946 75.5407 35.5079 77.0695 35.8133 78.9466C36.1466 80.3982 36.9466 81.5004 38.2133 82.2533C36.2705 84.086 36.0038 86.1481 37.4133 88.44C37.8258 88.8882 38.2702 89.297 38.7467 89.6666C37.6067 90.8115 37.1978 92.1804 37.52 93.7733C37.8565 94.8926 38.5143 95.7636 39.4933 96.3866C38.0626 98.1138 37.9381 99.9449 39.12 101.88C39.6114 102.603 40.1981 103.243 40.88 103.8C40.9651 103.968 41.0185 104.146 41.04 104.333C41.2627 108.918 41.4227 113.505 41.52 118.093Z" fill="#E82C1A"/>
<path fill-rule="evenodd" clip-rule="evenodd" d="M87.1733 65.8267C89.0392 65.7203 90.9236 65.6848 92.8267 65.72C92.857 65.9243 92.8214 66.102 92.72 66.2533C92.72 66.1111 92.72 65.9688 92.72 65.8267C90.8712 65.8267 89.0222 65.8267 87.1733 65.8267Z" fill="#787815"/>
<path fill-rule="evenodd" clip-rule="evenodd" d="M93.8934 65.72C99.5822 65.72 105.271 65.72 110.96 65.72C109.087 83.8551 107.203 101.988 105.307 120.12C98.3374 120.155 91.3686 120.12 84.4 120.013C85.824 117.628 86.9262 115.103 87.7067 112.44C88.6268 108.846 88.3246 105.362 86.8 101.987C86.6826 101.022 86.8959 100.134 87.44 99.32C88.5789 97.612 89.6099 95.8343 90.5334 93.9866C91.5563 91.7621 91.6986 89.4866 90.96 87.16C90.6092 86.4941 90.2892 85.8185 90 85.1333C89.9289 84.7066 89.9289 84.28 90 83.8533C90.2263 83.4493 90.5285 83.1114 90.9067 82.84C93.2892 81.4356 95.6359 79.9779 97.9467 78.4666C98.1056 78.3872 98.2123 78.2627 98.2667 78.0933C98.0687 77.3014 97.8376 76.5191 97.5734 75.7466C97.4839 75.6267 97.3594 75.5556 97.2 75.5333C94.8113 76.2584 92.4291 77.0051 90.0534 77.7733C90.0178 77.7022 89.9822 77.6311 89.9467 77.56C90.4305 75.5987 90.5017 73.6254 90.16 71.64C92.6381 70.4569 93.8826 68.4836 93.8934 65.72Z" fill="#E82C1A"/>
<path fill-rule="evenodd" clip-rule="evenodd" d="M38.5334 65.8267C39.6717 65.8089 40.8096 65.8267 41.9467 65.88C42.5031 65.9391 43.0364 66.0813 43.5467 66.3067C45.2482 67.7833 45.7282 69.5788 44.9867 71.6934C44.354 72.6817 43.5185 73.4461 42.4801 73.9867C43.1461 74.287 43.8216 74.5714 44.5067 74.84C45.7813 75.9018 46.1902 77.2351 45.7334 78.84C45.3227 80.0685 44.5582 81.0108 43.4401 81.6667C45.1966 82.4812 46.1923 83.8502 46.4267 85.7734C46.2917 87.1706 45.6161 88.2194 44.4001 88.92C46.7824 89.9695 47.5467 91.7295 46.6934 94.2C46.1734 94.8978 45.5512 95.4845 44.8267 95.96C47.2153 96.9506 47.9086 98.6396 46.9067 101.027C46.5685 101.756 46.1062 102.396 45.5201 102.947C45.5022 103.285 45.4845 103.622 45.4667 103.96C45.8718 109.237 46.2274 114.517 46.5334 119.8C45.2534 119.8 43.9734 119.8 42.6934 119.8C42.5844 114.356 42.3889 108.916 42.1067 103.48C41.5792 102.952 41.0458 102.419 40.5067 101.88C39.8846 101.116 39.5468 100.245 39.4934 99.2667C39.4396 98.4323 39.7241 97.739 40.3467 97.1867C40.7576 96.7935 41.1843 96.4202 41.6267 96.0667C40.7218 95.8011 39.9218 95.3566 39.2267 94.7334C38.1252 93.0197 38.3563 91.5086 39.9201 90.2C40.4348 89.9604 40.9325 89.6938 41.4134 89.4C40.2246 89.188 39.2113 88.6546 38.3734 87.8C37.2524 86.0125 37.4835 84.4303 39.0667 83.0534C39.8956 82.639 40.749 82.2833 41.6267 81.9867C40.9203 81.8216 40.2092 81.6793 39.4934 81.56C37.8602 80.9383 36.9714 79.7472 36.8267 77.9867C36.8689 76.9247 37.2955 76.0536 38.1067 75.3734C38.836 74.9197 39.5827 74.493 40.3467 74.0934C38.7318 73.7933 37.434 72.9933 36.4534 71.6934C35.362 69.5618 35.7708 67.7663 37.6801 66.3067C37.9573 66.1152 38.2418 65.9552 38.5334 65.8267Z" fill="#E8E928"/>
<path fill-rule="evenodd" clip-rule="evenodd" d="M87.1734 65.8267C89.0223 65.8267 90.8712 65.8267 92.7201 65.8267C92.7201 65.9688 92.7201 66.1111 92.7201 66.2533C92.6409 67.7093 92.0365 68.9005 90.9067 69.8267C90.2422 70.2475 89.5666 70.6386 88.8801 71C89.6097 73.8947 89.3608 76.7036 88.1334 79.4267C88.1689 79.48 88.2045 79.5333 88.2401 79.5867C90.9985 78.6554 93.7718 77.7665 96.5601 76.92C96.6312 76.9555 96.7023 76.9911 96.7734 77.0267C96.8445 77.24 96.9156 77.4533 96.9867 77.6667C94.7824 79.212 92.5068 80.652 90.1601 81.9867C88.951 82.8583 88.542 84.0139 88.9334 85.4533C89.3882 86.4701 89.8149 87.5012 90.2134 88.5467C90.4899 90.1244 90.3122 91.6532 89.6801 93.1333C88.6857 95.1229 87.5834 97.0429 86.3734 98.8933C85.7723 99.8424 85.5234 100.874 85.6267 101.987C87.4651 106.152 87.5363 110.348 85.8401 114.573C85.1263 116.322 84.2729 117.992 83.2801 119.587C83.8305 117.971 84.3638 116.335 84.8801 114.68C85.0394 113.973 85.1638 113.261 85.2534 112.547C85.2356 112.298 85.2179 112.049 85.2001 111.8C83.0775 108.206 82.1887 104.331 82.5334 100.173C82.791 98.0946 83.5732 96.2458 84.8801 94.6267C85.2808 93.5648 85.4941 92.4626 85.5201 91.32C85.7021 88.9719 85.4888 86.6608 84.8801 84.3867C83.988 82.5365 82.8857 80.8299 81.5734 79.2667C80.7635 78.3898 80.0524 77.4654 79.4401 76.4933C81.5706 77.4963 83.7218 78.4563 85.8934 79.3733C85.9289 78.9822 85.9645 78.5911 86.0001 78.2C85.7223 74.8626 85.6335 71.5204 85.7334 68.1733C85.9173 67.1997 86.3973 66.4174 87.1734 65.8267Z" fill="#E7E828"/>
<path fill-rule="evenodd" clip-rule="evenodd" d="M47.1733 67.96C47.8323 67.918 48.4723 68.0069 49.0933 68.2266C49.9279 68.6261 50.7457 69.0528 51.5467 69.5066C52.6266 70.0947 53.7288 70.1302 54.8533 69.6133C55.6846 69.2154 56.5023 68.7888 57.3067 68.3333C57.6815 68.1595 58.0725 68.0352 58.48 67.96C58.7969 68.0597 59.1169 68.1486 59.44 68.2266C60.3461 68.6974 61.235 69.1952 62.1067 69.72C63.3006 70.3048 64.5095 70.3404 65.7333 69.8266C66.6395 69.3559 67.5283 68.8581 68.4 68.3333C68.8231 68.1342 69.2675 68.0098 69.7333 67.96C70.2191 68.0592 70.6991 68.1836 71.1733 68.3333C72.2421 68.9058 73.3088 69.4746 74.3733 70.04C75.3393 70.3 76.2637 70.1934 77.1467 69.72C77.7155 69.2933 78.2845 68.8666 78.8533 68.44C79.26 68.2274 79.6866 68.0674 80.1333 67.96C80.6395 68.0516 81.1372 68.1761 81.6267 68.3333C82.5068 68.8711 83.3779 69.4222 84.24 69.9866C84.3351 71.5498 84.3884 73.1143 84.4 74.68C84.0323 74.6465 83.6768 74.5575 83.3333 74.4133C82.296 73.7784 81.176 73.4051 79.9733 73.2933C78.901 73.3227 77.9233 73.6427 77.04 74.2533C76.6511 74.106 76.2778 73.9282 75.92 73.72C76.0181 74.0022 76.1781 74.2689 76.4 74.52C75.4786 75.0528 74.5186 75.1239 73.52 74.7333C72.6667 74.2711 71.8133 73.8088 70.96 73.3466C70.083 73.0385 69.1941 73.003 68.2933 73.24C67.1523 73.775 66.0145 74.3083 64.88 74.84C64.1219 75.0664 63.3753 75.0309 62.64 74.7333C61.7453 74.2148 60.8209 73.7526 59.8667 73.3466C58.7131 72.9603 57.5754 72.9958 56.4533 73.4533C55.5482 73.8526 54.6593 74.2792 53.7867 74.7333C53.261 74.8846 52.7277 74.9201 52.1867 74.84C51.2848 74.4424 50.396 74.0158 49.52 73.56C48.795 73.2809 48.0483 73.0854 47.28 72.9733C46.6017 73.0276 45.9794 73.2409 45.4133 73.6133C45.3422 73.4355 45.3422 73.2578 45.4133 73.08C45.8458 72.4995 46.1658 71.8595 46.3733 71.16C46.4264 70.2678 46.4264 69.3788 46.3733 68.4933C46.6321 68.2851 46.8988 68.1073 47.1733 67.96Z" fill="#1C0FB5"/>
<path fill-rule="evenodd" clip-rule="evenodd" d="M46.9601 73.72C47.8892 73.7865 48.7782 74.0177 49.6267 74.4133C50.5694 75.063 51.6005 75.472 52.7201 75.64C53.1186 75.637 53.5097 75.5837 53.8934 75.48C54.983 74.9529 56.0852 74.4551 57.2001 73.9866C58.2664 73.723 59.2974 73.8296 60.2934 74.3066C60.9334 74.6622 61.5734 75.0178 62.2134 75.3733C63.4357 75.8894 64.6445 75.8537 65.8401 75.2666C66.787 74.7753 67.747 74.3131 68.7201 73.88C69.1822 73.8088 69.6445 73.8088 70.1067 73.88C71.1607 74.2647 72.1562 74.7625 73.0934 75.3733C74.3579 75.887 75.6024 75.8337 76.8267 75.2133C77.2039 75.6989 77.595 76.1789 78.0001 76.6533C77.075 77.3233 76.0439 77.7321 74.9067 77.88C74.6159 77.8606 74.3315 77.8072 74.0534 77.72C73.036 77.0581 71.9693 76.4891 70.8534 76.0133C69.4931 75.6603 68.2131 75.8381 67.0134 76.5466C66.119 77.2695 65.1057 77.714 63.9734 77.88C63.5926 77.8753 63.2193 77.8219 62.8534 77.72C61.9651 77.276 61.1117 76.7782 60.2934 76.2266C59.0473 75.5923 57.8029 75.5923 56.5601 76.2266C55.6257 76.8717 54.63 77.405 53.5734 77.8266C53.1112 77.8978 52.6489 77.8978 52.1867 77.8266C51.0682 77.3206 49.9659 76.7873 48.8801 76.2266C48.2046 75.9199 47.5291 75.9022 46.8534 76.1733C46.5893 75.4833 46.1981 74.8789 45.6801 74.36C46.0649 74.0433 46.4916 73.8299 46.9601 73.72Z" fill="#FAFAFA"/>
<path fill-rule="evenodd" clip-rule="evenodd" d="M79.1734 74.04C79.6725 74.0223 80.1702 74.0401 80.6667 74.0933C81.6147 74.425 82.5391 74.8161 83.44 75.2667C83.8603 75.3749 84.287 75.4283 84.72 75.4267C84.7434 76.1822 84.7434 76.9289 84.72 77.6667C82.4571 76.624 80.1815 75.6107 77.8934 74.6267C78.318 74.3961 78.7447 74.2005 79.1734 74.04Z" fill="#F8F8F8"/>
<path fill-rule="evenodd" clip-rule="evenodd" d="M58.16 76.3867C58.7041 76.4552 59.2375 76.5796 59.76 76.76C60.6134 77.2578 61.4667 77.7555 62.32 78.2533C63.3838 78.7452 64.4505 78.7452 65.52 78.2533C66.3917 77.7285 67.2806 77.2307 68.1867 76.76C69.2769 76.391 70.3436 76.4621 71.3867 76.9733C71.9915 77.2755 72.5604 77.631 73.0934 78.04C74.1982 78.5899 75.336 78.661 76.5067 78.2533C77.1224 77.9366 77.7446 77.6343 78.3734 77.3467C78.5807 77.4468 78.7585 77.5891 78.9067 77.7733C79.7626 78.8247 80.5981 79.8914 81.4134 80.9733C81.3956 81.0088 81.3779 81.0445 81.36 81.08C80.5693 80.8241 79.7693 80.8064 78.96 81.0267C78.0577 81.46 77.1688 81.9223 76.2934 82.4133C75.5242 82.7203 74.742 82.7559 73.9467 82.52C72.8992 82.0496 71.8682 81.5518 70.8534 81.0267C70.0436 80.7428 69.2257 80.7073 68.4 80.92C67.4078 81.4161 66.4122 81.9139 65.4134 82.4133C64.5273 82.7634 63.6384 82.7634 62.7467 82.4133C61.4196 81.5802 59.9796 81.1002 58.4267 80.9733C58.0104 80.9749 57.6015 81.0283 57.2 81.1333C56.1567 81.5306 55.1256 81.9572 54.1067 82.4133C53.3934 82.7555 52.6823 82.7555 51.9734 82.4133C50.5733 81.6242 49.0799 81.1087 47.4934 80.8667C46.8169 80.9419 46.1946 81.1552 45.6267 81.5067C46.1209 80.8029 46.5119 80.0207 46.8 79.16C46.87 78.3352 46.9945 77.5352 47.1734 76.76C47.5289 76.6888 47.8845 76.6888 48.24 76.76C49.3135 77.1723 50.3446 77.6701 51.3334 78.2533C52.2774 78.6979 53.2374 78.7334 54.2134 78.36C55.0122 78.0143 55.7589 77.5876 56.4534 77.08C57.0127 76.7936 57.5816 76.5624 58.16 76.3867Z" fill="#1C0FB4"/>
<path fill-rule="evenodd" clip-rule="evenodd" d="M68.72 81.5067C69.2191 81.489 69.7168 81.5068 70.2133 81.56C71.3802 82.0368 72.5179 82.5701 73.6267 83.16C74.6311 83.3927 75.6267 83.357 76.6133 83.0533C77.4887 82.5624 78.3777 82.1001 79.28 81.6667C80.3445 81.4751 81.3401 81.6529 82.2667 82.2C82.9507 82.9828 83.413 83.854 83.6533 84.8133C82.2709 83.8189 80.7421 83.4811 79.0667 83.8C78.017 84.2684 76.9503 84.6951 75.8667 85.08C75.1822 85.1728 74.5066 85.1372 73.84 84.9733C72.4972 84.0754 71.0217 83.5598 69.4133 83.4267C68.8039 83.4412 68.2173 83.5657 67.6533 83.8C66.6875 84.4074 65.6564 84.8696 64.56 85.1867C63.9017 85.2819 63.2617 85.2109 62.64 84.9733C61.9476 84.645 61.272 84.2894 60.6133 83.9067C59.9267 83.6163 59.2156 83.4208 58.48 83.32C57.9417 83.4241 57.4083 83.5486 56.88 83.6933C55.7911 84.309 54.6533 84.8068 53.4667 85.1867C53.1111 85.2578 52.7555 85.2578 52.4 85.1867C51.2158 84.7547 50.0425 84.2925 48.88 83.8C48.2432 83.696 47.6032 83.6072 46.96 83.5333C46.7061 83.0075 46.3861 82.5275 46 82.0933C46.6124 81.6656 47.288 81.5233 48.0267 81.6667C49.3504 81.9818 50.6126 82.4618 51.8133 83.1067C52.6887 83.395 53.5599 83.3772 54.4267 83.0533C55.4319 82.5642 56.463 82.1375 57.52 81.7733C58.1955 81.7022 58.8711 81.7022 59.5467 81.7733C60.5444 82.1121 61.5044 82.5388 62.4267 83.0533C63.6147 83.4362 64.7881 83.4007 65.9467 82.9467C66.8642 82.4347 67.7887 81.9547 68.72 81.5067Z" fill="#F9F9F9"/>
<path fill-rule="evenodd" clip-rule="evenodd" d="M57.7334 84.0667C58.2679 84.049 58.8012 84.0668 59.3334 84.12C60.3357 84.4968 61.2957 84.9589 62.2134 85.5067C63.3882 85.9889 64.5615 85.9889 65.7334 85.5067C66.5156 85.1155 67.2979 84.7245 68.08 84.3333C69.2764 83.9586 70.4498 84.0298 71.6 84.5467C72.4082 84.9685 73.226 85.3597 74.0534 85.72C74.9577 85.8279 75.8466 85.7568 76.72 85.5067C77.647 85.0318 78.607 84.6408 79.6 84.3333C81.3156 84.2532 82.8089 84.7866 84.08 85.9333C84.3226 86.9317 84.4293 87.9451 84.4 88.9733C83.4526 88.7107 82.5282 88.3729 81.6267 87.96C80.6677 87.7505 79.7077 87.7505 78.7467 87.96C77.7749 88.4461 76.7792 88.8728 75.76 89.24C75.2979 89.3112 74.8356 89.3112 74.3734 89.24C73.1574 88.7991 71.9484 88.3369 70.7467 87.8533C69.9299 87.6449 69.1122 87.6449 68.2934 87.8533C67.4632 88.1795 66.6454 88.5352 65.84 88.92C64.9385 89.3092 64.0141 89.3803 63.0667 89.1333C62.2371 88.8429 61.4192 88.5229 60.6134 88.1733C59.4133 87.739 58.2044 87.7035 56.9867 88.0667C56.0159 88.5521 55.0203 88.9788 54 89.3467C53.5734 89.4178 53.1467 89.4178 52.72 89.3467C51.5822 88.92 50.4445 88.4933 49.3067 88.0667C48.5667 87.9008 47.82 87.7764 47.0667 87.6933C47.5372 86.6177 47.6083 85.5155 47.28 84.3867C47.6664 84.2631 48.0575 84.2453 48.4534 84.3333C49.4025 84.6656 50.3269 85.0568 51.2267 85.5067C52.3637 85.9967 53.5015 85.9967 54.64 85.5067C55.6519 84.9649 56.683 84.4849 57.7334 84.0667Z" fill="#1C0FB4"/>
<path fill-rule="evenodd" clip-rule="evenodd" d="M68.72 88.3333C69.2545 88.3156 69.7879 88.3334 70.32 88.3867C71.377 88.7508 72.4081 89.1775 73.4134 89.6667C74.6864 90.0761 75.9309 90.0049 77.1467 89.4533C77.8326 89.0748 78.5436 88.7548 79.28 88.4933C79.92 88.4222 80.56 88.4222 81.2 88.4933C82.2312 88.9022 83.2622 89.3112 84.2934 89.72C84.4356 90.3955 84.4356 91.0712 84.2934 91.7467C82.9917 90.7902 81.534 90.3457 79.92 90.4133C78.9633 90.6848 78.0389 91.0404 77.1467 91.48C76.3803 91.7227 75.5981 91.7938 74.8 91.6933C73.5154 91.1398 72.1999 90.6776 70.8534 90.3067C69.8782 90.1952 68.9182 90.2662 67.9734 90.52C67.0645 90.9178 66.14 91.2733 65.2 91.5867C64.56 91.6578 63.92 91.6578 63.28 91.5867C62.2773 91.2168 61.2816 90.8257 60.2934 90.4133C59.2617 90.0578 58.2306 90.0578 57.2 90.4133C56.1844 90.8467 55.1532 91.2378 54.1067 91.5867C53.5378 91.6578 52.9689 91.6578 52.4 91.5867C51.4056 91.2318 50.41 90.8763 49.4134 90.52C48.8496 90.4106 48.2808 90.3394 47.7067 90.3067C47.3825 89.6955 46.9559 89.1621 46.4267 88.7067C46.5465 88.5953 46.6887 88.5243 46.8534 88.4933C47.9948 88.4141 49.097 88.5918 50.16 89.0267C51.1612 89.5811 52.2279 89.9188 53.36 90.04C53.9504 90.0169 54.5194 89.8924 55.0667 89.6667C55.872 89.2818 56.6898 88.9262 57.52 88.6C58.3022 88.5289 59.0845 88.5289 59.8667 88.6C60.8706 88.9702 61.8663 89.3613 62.8534 89.7733C64.0255 90.0483 65.1633 89.9417 66.2667 89.4533C67.0941 89.0748 67.9119 88.7014 68.72 88.3333Z" fill="#FAFAFA"/>
<path fill-rule="evenodd" clip-rule="evenodd" d="M58.16 90.7867C58.5882 90.7689 59.0149 90.7868 59.44 90.84C60.5768 91.1773 61.679 91.6039 62.7467 92.12C63.7073 92.3289 64.6673 92.3289 65.6267 92.12C66.646 91.6993 67.6772 91.3081 68.72 90.9467C69.8463 90.815 70.9485 90.9217 72.0267 91.2667C72.9036 91.6517 73.7925 92.0072 74.6934 92.3333C75.5598 92.4238 76.4132 92.3527 77.2534 92.12C78.1552 91.7045 79.0797 91.349 80.0267 91.0533C81.6141 91.0028 83.0186 91.4828 84.24 92.4933C84.2456 93.5132 83.8723 94.3665 83.12 95.0533C81.9438 94.4518 80.6993 94.2563 79.3867 94.4667C78.5316 94.7342 77.7137 95.0897 76.9334 95.5333C75.9839 95.8393 75.0239 95.8749 74.0534 95.64C73.2 95.2845 72.3467 94.9288 71.4934 94.5733C70.5066 94.2717 69.5111 94.236 68.5067 94.4667C67.4868 94.9234 66.4556 95.3501 65.4134 95.7467C64.7734 95.8178 64.1334 95.8178 63.4934 95.7467C62.5416 95.3701 61.5816 95.0146 60.6134 94.68C59.4391 94.3294 58.2658 94.3294 57.0934 94.68C55.9107 95.2047 54.684 95.578 53.4134 95.8C53.0683 95.7912 52.7305 95.7379 52.4 95.64C50.9736 94.9807 49.4803 94.5718 47.92 94.4133C48.0841 93.749 48.1908 93.0734 48.24 92.3867C48.2002 91.9173 48.129 91.4551 48.0267 91C48.384 90.9824 48.7396 91.0002 49.0934 91.0533C50.0179 91.4088 50.9422 91.7645 51.8667 92.12C52.9075 92.355 53.9386 92.3193 54.96 92.0133C56.0264 91.5676 57.0931 91.1587 58.16 90.7867Z" fill="#1C0FB4"/>
<path fill-rule="evenodd" clip-rule="evenodd" d="M69.0401 94.9467C69.6101 94.929 70.1789 94.9468 70.7467 95C71.8123 95.426 72.879 95.8527 73.9467 96.28C74.7219 96.4416 75.5042 96.4771 76.2934 96.3867C77.3841 96.0191 78.4507 95.5924 79.4934 95.1067C80.6041 94.943 81.6708 95.0851 82.6934 95.5334C82.7421 95.5775 82.7778 95.6308 82.8001 95.6934C82.5216 96.2147 82.2726 96.7481 82.0534 97.2934C81.3282 97.0222 80.5815 96.9332 79.8134 97.0267C78.795 97.358 77.7995 97.7491 76.8267 98.2C76.1217 98.3537 75.4106 98.3892 74.6934 98.3067C73.796 97.972 72.9072 97.6164 72.0267 97.24C70.763 96.8479 69.483 96.7768 68.1867 97.0267C67.1674 97.4474 66.1363 97.8385 65.0934 98.2C64.4534 98.2712 63.8134 98.2712 63.1734 98.2C62.1779 97.8089 61.1822 97.4178 60.1867 97.0267C59.3088 96.7207 58.4199 96.685 57.5201 96.92C56.3822 97.3467 55.2445 97.7734 54.1067 98.2C53.5022 98.2712 52.8979 98.2712 52.2934 98.2C50.8522 97.5714 49.3589 97.127 47.8134 96.8667C47.5662 96.4419 47.2462 96.0864 46.8534 95.8C47.1057 95.3495 47.479 95.1006 47.9734 95.0534C49.4745 95.2456 50.9145 95.6544 52.2934 96.28C53.1544 96.4887 54.0077 96.4531 54.8534 96.1734C55.6356 95.8889 56.4179 95.6045 57.2001 95.32C58.1857 95.0127 59.1812 94.9772 60.1867 95.2134C61.2534 95.6045 62.3201 95.9955 63.3867 96.3867C64.1749 96.4721 64.9572 96.4365 65.7334 96.28C66.8692 95.8889 67.9715 95.4444 69.0401 94.9467Z" fill="#FAFAFA"/>
<path fill-rule="evenodd" clip-rule="evenodd" d="M58.0534 97.4C58.6636 97.386 59.2681 97.4394 59.8667 97.56C60.72 97.9155 61.5734 98.2711 62.4267 98.6267C63.6015 98.9785 64.7749 98.9785 65.9467 98.6267C66.8486 98.2112 67.773 97.8557 68.72 97.56C69.5785 97.4773 70.4318 97.5129 71.28 97.6667C72.2984 97.998 73.2939 98.3891 74.2667 98.84C75.1194 99.048 75.9727 99.048 76.8267 98.84C77.8471 98.4186 78.8782 98.0275 79.92 97.6667C80.5682 97.6146 81.2082 97.6679 81.84 97.8267C81.75 98.4717 81.6255 99.1117 81.4667 99.7467C81.4135 100.172 81.3957 100.599 81.4134 101.027C79.8655 100.842 78.4433 101.18 77.1467 102.04C76.2531 102.392 75.3288 102.498 74.3734 102.36C73.3539 102.028 72.3584 101.637 71.3867 101.187C70.4366 100.883 69.4766 100.847 68.5067 101.08C67.464 101.566 66.3974 101.992 65.3067 102.36C64.7022 102.431 64.0978 102.431 63.4934 102.36C62.4989 102.005 61.5033 101.65 60.5067 101.293C59.3679 100.942 58.2302 100.942 57.0934 101.293C56.2045 101.613 55.3155 101.933 54.4267 102.253C53.864 102.398 53.2951 102.434 52.72 102.36C51.2206 101.783 49.6918 101.303 48.1334 100.92C48.4974 99.8612 48.5329 98.7946 48.24 97.72C48.4816 97.5977 48.7305 97.5798 48.9867 97.6667C49.8471 97.9653 50.7004 98.2853 51.5467 98.6267C52.5324 98.9317 53.528 98.9674 54.5334 98.7333C55.7171 98.2822 56.8905 97.8379 58.0534 97.4Z" fill="#1C0FB4"/>
<path fill-rule="evenodd" clip-rule="evenodd" d="M68.9334 101.56C69.5034 101.542 70.0723 101.56 70.64 101.613C71.7225 101.998 72.7892 102.425 73.84 102.893C74.7636 103.103 75.688 103.103 76.6134 102.893C77.5379 102.502 78.4622 102.111 79.3867 101.72C80.0257 101.667 80.6657 101.649 81.3067 101.667C81.3072 102.809 81.3783 103.947 81.52 105.08C69.8934 105.08 58.2667 105.08 46.64 105.08C46.6223 104.51 46.6402 103.941 46.6934 103.373C47.1705 102.914 47.5438 102.38 47.8134 101.773C48.2748 101.674 48.7371 101.691 49.2 101.827C50.2118 102.14 51.2074 102.496 52.1867 102.893C52.9667 103.088 53.7488 103.088 54.5334 102.893C55.8983 102.278 57.3205 101.869 58.8 101.667C59.2311 101.685 59.6578 101.738 60.08 101.827C61.0517 102.153 62.0117 102.508 62.96 102.893C63.9194 103.102 64.8794 103.102 65.84 102.893C66.8807 102.443 67.9118 101.999 68.9334 101.56Z" fill="#FBFBFB"/>
<path fill-rule="evenodd" clip-rule="evenodd" d="M41.5201 118.093C41.6258 118.785 41.6613 119.496 41.6268 120.227C36.3464 120.262 31.0842 120.227 25.8401 120.12C31.0668 120.12 36.2934 120.12 41.5201 120.12C41.5201 119.445 41.5201 118.769 41.5201 118.093Z" fill="#420D08"/>
<path fill-rule="evenodd" clip-rule="evenodd" d="M103.387 132.813C100.489 132.92 97.5739 132.955 94.64 132.92C94.5851 132.665 94.5141 132.415 94.4267 132.173C96.8802 132.191 99.3336 132.173 101.787 132.12C100.482 130.727 99.238 129.287 98.0534 127.8C99.3494 126.379 100.665 124.975 102 123.587C97.4845 123.515 92.9689 123.515 88.4534 123.587C88.1735 123.649 88.1023 123.79 88.24 124.013C89.4489 124.903 90.7289 125.685 92.08 126.36C92.5766 126.413 93.0743 126.431 93.5734 126.413C93.4859 126.802 93.6281 127.051 94 127.16C94.1066 128.403 94.1421 129.646 94.1067 130.893C93.9322 130.402 93.7189 129.94 93.4667 129.507C93.4667 128.689 93.4667 127.871 93.4667 127.053C75.0489 127.053 56.6312 127.053 38.2134 127.053C38.2134 129.862 38.2134 132.671 38.2134 135.48C56.6312 135.48 75.0489 135.48 93.4667 135.48C93.4667 134.413 93.4667 133.347 93.4667 132.28C93.5734 132.28 93.68 132.28 93.7867 132.28C93.6906 132.679 93.8328 132.892 94.2134 132.92C94.2134 132.955 94.2134 132.991 94.2134 133.027C94.2134 134.2 94.2134 135.373 94.2134 136.547C93.9645 136.547 93.7155 136.547 93.4667 136.547C93.492 136.409 93.4565 136.302 93.36 136.227C74.7468 136.12 56.1157 136.085 37.4667 136.12C37.4667 135.871 37.4667 135.622 37.4667 135.373C37.4667 134.378 37.4667 133.382 37.4667 132.387C34.3725 132.422 31.2792 132.387 28.1867 132.28C29.6193 130.589 31.0772 128.918 32.56 127.267C30.976 125.594 29.4116 123.905 27.8667 122.2C33.0968 122.097 38.3234 122.132 43.5467 122.307C43.9633 122.41 44.1945 122.677 44.24 123.107C44.4927 124.196 44.6527 125.299 44.72 126.413C58.7645 126.413 72.8089 126.413 86.8534 126.413C87.0418 125.353 87.1841 124.286 87.28 123.213C87.6934 123.034 88.12 122.874 88.56 122.733C93.6095 122.665 98.6584 122.701 103.707 122.84C102.176 124.513 100.647 126.184 99.12 127.853C100.563 129.492 101.985 131.145 103.387 132.813Z" fill="#05050A"/>
<path fill-rule="evenodd" clip-rule="evenodd" d="M42.5867 123.96C41.0474 125.112 39.3584 126.001 37.52 126.627C37.4667 128.262 37.4489 129.897 37.4667 131.533C34.9594 131.569 32.4705 131.533 30 131.427C31.2265 130.04 32.4353 128.635 33.6267 127.213C32.3248 125.859 31.0448 124.489 29.7867 123.107C34.0352 123 38.3019 122.965 42.5867 123C42.5867 123.32 42.5867 123.64 42.5867 123.96Z" fill="#1C0FB4"/>
<path fill-rule="evenodd" clip-rule="evenodd" d="M42.5867 123.96C42.5867 123.64 42.5867 123.32 42.5867 123C38.3019 122.965 34.0353 123 29.7867 123.107C29.7288 123.1 29.6933 123.065 29.6801 123C34.053 122.875 38.4263 122.858 42.8001 122.947C42.9779 122.982 43.1556 123.018 43.3334 123.053C43.3891 123.113 43.4246 123.185 43.4401 123.267C43.2021 123.558 42.9176 123.789 42.5867 123.96Z" fill="#12097A"/>
<path fill-rule="evenodd" clip-rule="evenodd" d="M94.4267 132.173C94.2763 131.757 94.1696 131.331 94.1067 130.893C94.1421 129.646 94.1066 128.403 94 127.16C93.6281 127.051 93.4859 126.802 93.5734 126.413C93.0743 126.431 92.5766 126.413 92.08 126.36C90.7289 125.685 89.4489 124.903 88.24 124.013C88.1023 123.79 88.1735 123.649 88.4534 123.587C92.9689 123.515 97.4845 123.515 102 123.587C100.665 124.975 99.3494 126.379 98.0534 127.8C99.238 129.287 100.482 130.727 101.787 132.12C99.3336 132.173 96.8803 132.191 94.4267 132.173Z" fill="#0404B6"/>
<path fill-rule="evenodd" clip-rule="evenodd" d="M43.5467 124.173C43.7836 124.888 43.9258 125.635 43.9734 126.413C42.6928 126.431 41.4128 126.413 40.1334 126.36C41.3686 125.762 42.5064 125.033 43.5467 124.173Z" fill="#F8F8F8"/>
<path fill-rule="evenodd" clip-rule="evenodd" d="M87.92 124.707C88.7213 125.276 89.5391 125.827 90.3733 126.36C89.4851 126.413 88.5963 126.431 87.7067 126.413C87.7085 125.834 87.7795 125.266 87.92 124.707Z" fill="#F5F5F5"/>
<path fill-rule="evenodd" clip-rule="evenodd" d="M93.4667 129.507C93.1874 129.478 92.9207 129.513 92.6667 129.613C92.3395 130.684 92.0018 131.751 91.6534 132.813C92.2126 133.037 92.4971 132.859 92.5067 132.28C92.8267 132.28 93.1467 132.28 93.4667 132.28C93.4667 133.347 93.4667 134.413 93.4667 135.48C75.0489 135.48 56.6312 135.48 38.2134 135.48C38.2134 132.671 38.2134 129.862 38.2134 127.053C56.6312 127.053 75.0489 127.053 93.4667 127.053C93.4667 127.871 93.4667 128.689 93.4667 129.507Z" fill="#1E10B6"/>
<path fill-rule="evenodd" clip-rule="evenodd" d="M41.7333 129.507C42.3833 129.468 43.0233 129.522 43.6533 129.667C44.2141 130.303 44.2141 130.943 43.6533 131.587C43.2379 131.722 42.8112 131.775 42.3733 131.747C42.3733 132.138 42.3733 132.528 42.3733 132.92C42.16 132.92 41.9467 132.92 41.7333 132.92C41.7333 131.782 41.7333 130.645 41.7333 129.507Z" fill="#EBF031"/>
<path fill-rule="evenodd" clip-rule="evenodd" d="M44.9334 129.507C45.2478 129.477 45.55 129.513 45.84 129.613C46.1673 130.684 46.505 131.751 46.8534 132.813C46.2941 133.037 46.0096 132.859 46 132.28C45.5734 132.28 45.1467 132.28 44.72 132.28C44.7104 132.859 44.426 133.037 43.8667 132.813C44.2233 131.708 44.5788 130.606 44.9334 129.507Z" fill="#E6EA36"/>
<path fill-rule="evenodd" clip-rule="evenodd" d="M47.1733 129.507C49.2402 129.209 50.0757 130.062 49.68 132.067C49.4548 132.54 49.0815 132.807 48.56 132.867C48.0991 132.92 47.6369 132.938 47.1733 132.92C47.1733 131.782 47.1733 130.645 47.1733 129.507Z" fill="#E9ED33"/>
<path fill-rule="evenodd" clip-rule="evenodd" d="M51.12 129.507C51.4345 129.477 51.7367 129.513 52.0267 129.613C52.3539 130.684 52.6916 131.751 53.04 132.813C52.4808 133.037 52.1963 132.859 52.1867 132.28C51.76 132.28 51.3333 132.28 50.9067 132.28C50.8971 132.859 50.6126 133.037 50.0533 132.813C50.4099 131.708 50.7655 130.606 51.12 129.507Z" fill="#E6EA36"/>
<path fill-rule="evenodd" clip-rule="evenodd" d="M53.36 129.507C53.6531 129.474 53.9375 129.509 54.2134 129.613C54.5221 130.338 54.8598 131.048 55.2267 131.747C55.28 131.001 55.2978 130.254 55.28 129.507C55.4934 129.507 55.7067 129.507 55.92 129.507C55.92 130.645 55.92 131.782 55.92 132.92C55.627 132.953 55.3426 132.918 55.0667 132.813C54.758 132.089 54.4203 131.379 54.0534 130.68C54 131.426 53.9823 132.172 54 132.92C53.7867 132.92 53.5734 132.92 53.36 132.92C53.36 131.782 53.36 130.645 53.36 129.507Z" fill="#EBF031"/>
<path fill-rule="evenodd" clip-rule="evenodd" d="M57.5201 129.4C57.9979 129.375 58.4601 129.446 58.9067 129.613C59.0291 129.854 59.0469 130.104 58.9601 130.36C58.2221 129.835 57.6178 129.942 57.1467 130.68C56.918 131.784 57.3625 132.317 58.4801 132.28C58.4801 132.067 58.4801 131.853 58.4801 131.64C58.3379 131.64 58.1956 131.64 58.0534 131.64C58.0534 131.427 58.0534 131.213 58.0534 131C58.4089 131 58.7645 131 59.1201 131C59.1526 131.561 59.117 132.113 59.0134 132.653C57.4466 133.307 56.5932 132.792 56.4534 131.107C56.4348 130.287 56.7905 129.719 57.5201 129.4Z" fill="#E8EC34"/>
<path fill-rule="evenodd" clip-rule="evenodd" d="M61.1467 129.507C61.3601 129.507 61.5734 129.507 61.7867 129.507C61.7691 129.899 61.7868 130.291 61.8401 130.68C62.2152 130.337 62.553 129.963 62.8534 129.56C63.1734 129.489 63.4934 129.489 63.8134 129.56C63.2919 130.028 62.8297 130.543 62.4267 131.107C62.9045 131.709 63.4023 132.296 63.9201 132.867C63.6001 132.938 63.2801 132.938 62.9601 132.867C62.5474 132.49 62.174 132.081 61.8401 131.64C61.7868 132.066 61.769 132.492 61.7867 132.92C61.5734 132.92 61.3601 132.92 61.1467 132.92C61.1467 131.782 61.1467 130.645 61.1467 129.507Z" fill="#E9ED33"/>
<path fill-rule="evenodd" clip-rule="evenodd" d="M64.7734 129.4C65.6988 129.251 66.3211 129.606 66.64 130.467C66.8034 131.273 66.6434 132.002 66.16 132.653C64.9749 133.225 64.2105 132.887 63.8667 131.64C63.6463 130.661 63.9485 129.914 64.7734 129.4Z" fill="#E5E938"/>
<path fill-rule="evenodd" clip-rule="evenodd" d="M66.9067 129.507C67.76 129.507 68.6133 129.507 69.4667 129.507C69.4667 129.72 69.4667 129.933 69.4667 130.147C69.1467 130.147 68.8267 130.147 68.5067 130.147C68.5067 131.071 68.5067 131.995 68.5067 132.92C68.2933 132.92 68.08 132.92 67.8667 132.92C67.8667 131.995 67.8667 131.071 67.8667 130.147C67.5467 130.147 67.2267 130.147 66.9067 130.147C66.9067 129.933 66.9067 129.72 66.9067 129.507Z" fill="#EDF32D"/>
<path fill-rule="evenodd" clip-rule="evenodd" d="M70.32 129.507C70.6345 129.477 70.9367 129.513 71.2267 129.613C71.5539 130.684 71.8917 131.751 72.24 132.813C71.6808 133.037 71.3963 132.859 71.3867 132.28C70.96 132.28 70.5334 132.28 70.1067 132.28C70.0971 132.859 69.8126 133.037 69.2534 132.813C69.6099 131.708 69.9655 130.606 70.32 129.507Z" fill="#E6EA36"/>
<path fill-rule="evenodd" clip-rule="evenodd" d="M73.6267 129.507C74.48 129.507 75.3334 129.507 76.1867 129.507C76.1867 129.72 76.1867 129.933 76.1867 130.147C75.8667 130.147 75.5467 130.147 75.2267 130.147C75.2267 131.071 75.2267 131.995 75.2267 132.92C75.0134 132.92 74.8 132.92 74.5867 132.92C74.5867 131.995 74.5867 131.071 74.5867 130.147C74.2667 130.147 73.9467 130.147 73.6267 130.147C73.6267 129.933 73.6267 129.72 73.6267 129.507Z" fill="#EDF32D"/>
<path fill-rule="evenodd" clip-rule="evenodd" d="M76.6133 129.507C77.2889 129.507 77.9645 129.507 78.64 129.507C78.64 129.72 78.64 129.933 78.64 130.147C78.1778 130.147 77.7155 130.147 77.2533 130.147C77.2533 130.36 77.2533 130.573 77.2533 130.787C77.68 130.787 78.1067 130.787 78.5333 130.787C78.5333 131 78.5333 131.213 78.5333 131.427C78.1067 131.427 77.68 131.427 77.2533 131.427C77.2533 131.711 77.2533 131.995 77.2533 132.28C77.7155 132.28 78.1778 132.28 78.64 132.28C78.64 132.493 78.64 132.707 78.64 132.92C77.9645 132.92 77.2889 132.92 76.6133 132.92C76.6133 131.782 76.6133 130.645 76.6133 129.507Z" fill="#EDF32D"/>
<path fill-rule="evenodd" clip-rule="evenodd" d="M79.28 129.507C79.8145 129.489 80.3479 129.507 80.88 129.56C81.2623 129.737 81.4401 130.04 81.4134 130.467C81.4258 130.797 81.3192 131.081 81.0934 131.32C81.3275 131.809 81.5408 132.307 81.7334 132.813C81.4941 132.917 81.2453 132.953 80.9867 132.92C80.9371 132.54 80.8126 132.185 80.6134 131.853C80.411 131.691 80.1799 131.621 79.92 131.64C79.92 132.067 79.92 132.493 79.92 132.92C79.7067 132.92 79.4934 132.92 79.28 132.92C79.28 131.782 79.28 130.645 79.28 129.507Z" fill="#E9ED33"/>
<path fill-rule="evenodd" clip-rule="evenodd" d="M83.12 129.4C83.5225 129.374 83.9136 129.428 84.2934 129.56C84.5021 129.786 84.5554 130.053 84.4534 130.36C83.7901 129.848 83.2568 129.955 82.8534 130.68C82.6014 131.695 82.9747 132.211 83.9734 132.227C84.1685 132.198 84.3285 132.108 84.4534 131.96C84.604 132.445 84.444 132.748 83.9734 132.867C83.0118 133.008 82.4251 132.6 82.2134 131.64C82.0073 130.674 82.3095 129.927 83.12 129.4Z" fill="#E6EA36"/>
<path fill-rule="evenodd" clip-rule="evenodd" d="M85.04 129.507C85.2534 129.507 85.4667 129.507 85.68 129.507C85.68 130.645 85.68 131.782 85.68 132.92C85.4667 132.92 85.2534 132.92 85.04 132.92C85.04 131.782 85.04 130.645 85.04 129.507Z" fill="#EDF32D"/>
<path fill-rule="evenodd" clip-rule="evenodd" d="M86.4267 129.507C86.7197 129.474 87.0042 129.509 87.28 129.613C87.5887 130.338 87.9264 131.048 88.2934 131.747C88.3467 131.001 88.3644 130.254 88.3467 129.507C88.56 129.507 88.7734 129.507 88.9867 129.507C88.9867 130.645 88.9867 131.782 88.9867 132.92C88.6937 132.953 88.4092 132.918 88.1334 132.813C87.8247 132.089 87.487 131.379 87.12 130.68C87.0667 131.426 87.049 132.172 87.0667 132.92C86.8534 132.92 86.64 132.92 86.4267 132.92C86.4267 131.782 86.4267 130.645 86.4267 129.507Z" fill="#EBF031"/>
<path fill-rule="evenodd" clip-rule="evenodd" d="M89.3067 129.507C90.16 129.507 91.0134 129.507 91.8667 129.507C91.8667 129.72 91.8667 129.933 91.8667 130.147C91.5467 130.147 91.2267 130.147 90.9067 130.147C90.9067 131.071 90.9067 131.995 90.9067 132.92C90.6934 132.92 90.48 132.92 90.2667 132.92C90.2667 131.995 90.2667 131.071 90.2667 130.147C89.9467 130.147 89.6267 130.147 89.3067 130.147C89.3067 129.933 89.3067 129.72 89.3067 129.507Z" fill="#EDF32D"/>
<path fill-rule="evenodd" clip-rule="evenodd" d="M93.4667 129.507C93.7189 129.94 93.9322 130.402 94.1067 130.893C94.1696 131.331 94.2763 131.757 94.4267 132.173C94.5141 132.415 94.5851 132.665 94.64 132.92C94.4979 132.92 94.3556 132.92 94.2134 132.92C93.8328 132.892 93.6906 132.679 93.7867 132.28C93.68 132.28 93.5734 132.28 93.4667 132.28C93.1467 132.28 92.8267 132.28 92.5067 132.28C92.4971 132.859 92.2126 133.037 91.6534 132.813C92.0018 131.751 92.3395 130.684 92.6667 129.613C92.9207 129.513 93.1874 129.478 93.4667 129.507Z" fill="#E4E833"/>
<path fill-rule="evenodd" clip-rule="evenodd" d="M42.3734 130.147C42.7392 130.105 43.0769 130.175 43.3867 130.36C43.5083 130.683 43.4193 130.914 43.12 131.053C42.8736 131.107 42.6248 131.124 42.3734 131.107C42.3734 130.787 42.3734 130.467 42.3734 130.147Z" fill="#2616B4"/>
<path fill-rule="evenodd" clip-rule="evenodd" d="M47.8134 130.147C49.0271 130.134 49.4361 130.703 49.04 131.853C48.7065 132.196 48.2975 132.338 47.8134 132.28C47.8134 131.569 47.8134 130.858 47.8134 130.147Z" fill="#2214B5"/>
<path fill-rule="evenodd" clip-rule="evenodd" d="M64.9867 130.04C65.5078 129.972 65.8456 130.185 66 130.68C66.12 131.203 66.0311 131.683 65.7334 132.12C65.1425 132.42 64.7337 132.26 64.5067 131.64C64.3335 130.988 64.4935 130.455 64.9867 130.04Z" fill="#2818B3"/>
<path fill-rule="evenodd" clip-rule="evenodd" d="M79.92 130.147C80.1363 130.13 80.3496 130.147 80.56 130.2C80.8445 130.449 80.8445 130.698 80.56 130.947C80.3496 131 80.1363 131.017 79.92 131C79.92 130.715 79.92 130.431 79.92 130.147Z" fill="#2415B4"/>
<path fill-rule="evenodd" clip-rule="evenodd" d="M45.2534 130.467C45.3597 130.463 45.4309 130.517 45.4667 130.627C45.5804 130.956 45.6515 131.294 45.68 131.64C45.4667 131.64 45.2534 131.64 45.04 131.64C45.0942 131.245 45.1653 130.855 45.2534 130.467Z" fill="#3520AF"/>
<path fill-rule="evenodd" clip-rule="evenodd" d="M51.44 130.467C51.5464 130.463 51.6175 130.517 51.6534 130.627C51.7671 130.956 51.8381 131.294 51.8667 131.64C51.6534 131.64 51.44 131.64 51.2267 131.64C51.2809 131.245 51.3519 130.855 51.44 130.467Z" fill="#3520AF"/>
<path fill-rule="evenodd" clip-rule="evenodd" d="M70.64 130.467C70.7464 130.463 70.8175 130.517 70.8534 130.627C70.9671 130.956 71.0381 131.294 71.0667 131.64C70.8534 131.64 70.64 131.64 70.4267 131.64C70.4809 131.245 70.5519 130.855 70.64 130.467Z" fill="#3520AF"/>
<path fill-rule="evenodd" clip-rule="evenodd" d="M93.0401 130.467C93.1464 130.463 93.2175 130.517 93.2534 130.627C93.3671 130.956 93.4381 131.294 93.4667 131.64C93.2534 131.64 93.0401 131.64 92.8267 131.64C92.8809 131.245 92.9519 130.855 93.0401 130.467Z" fill="#3520AE"/>
<path fill-rule="evenodd" clip-rule="evenodd" d="M30 131.427C32.4705 131.533 34.9594 131.569 37.4667 131.533C34.9248 131.657 32.3648 131.675 29.7867 131.587C29.8447 131.51 29.9159 131.457 30 131.427Z" fill="#0F0965"/>
<path fill-rule="evenodd" clip-rule="evenodd" d="M103.387 132.813C103.471 132.843 103.542 132.896 103.6 132.973C100.471 133.027 97.3424 133.045 94.2134 133.027C94.2134 132.991 94.2134 132.955 94.2134 132.92C94.3556 132.92 94.4979 132.92 94.64 132.92C97.5739 132.955 100.489 132.92 103.387 132.813Z" fill="#646464"/>
<path fill-rule="evenodd" clip-rule="evenodd" d="M37.4667 135.373C37.4667 135.622 37.4667 135.871 37.4667 136.12C56.1157 136.085 74.7468 136.12 93.36 136.227C74.6934 136.227 56.0267 136.227 37.36 136.227C37.3274 135.918 37.3629 135.635 37.4667 135.373Z" fill="#424242"/>
</svg>
