<?xml version="1.0" encoding="UTF-8"?>
<!DOCTYPE svg PUBLIC "-//W3C//DTD SVG 1.1//EN" "http://www.w3.org/Graphics/SVG/1.1/DTD/svg11.dtd">
<svg xmlns="http://www.w3.org/2000/svg" version="1.1" width="1200px" height="1379px" style="shape-rendering:geometricPrecision; text-rendering:geometricPrecision; image-rendering:optimizeQuality; fill-rule:evenodd; clip-rule:evenodd" xmlns:xlink="http://www.w3.org/1999/xlink">
<g><path style="opacity:0.98" fill="#010101" d="M 41.5,24.5 C 413.5,24.8122 785.5,25.1455 1157.5,25.5C 1112.47,461.173 1067.3,896.84 1022,1332.5C 881.208,1333.83 740.208,1334.5 599,1334.5C 457.931,1334.5 316.931,1334.17 176,1333.5C 131.296,897.128 86.4628,460.794 41.5,24.5 Z"/></g>
<g><path style="opacity:1" fill="#fdfdfd" d="M 70.5,50.5 C 423.167,50.7824 775.833,51.1158 1128.5,51.5C 1085.35,470.522 1042.02,889.522 998.5,1308.5C 732.167,1308.5 465.833,1308.5 199.5,1308.5C 156.5,889.167 113.5,469.833 70.5,50.5 Z"/></g>
<g><path style="opacity:1" fill="#010101" d="M 110.5,80.5 C 436.167,80.5 761.833,80.5 1087.5,80.5C 1070.47,255.503 1053.3,430.503 1036,605.5C 1034.36,610.708 1033.36,616.041 1033,621.5C 1014.92,791.144 997.086,960.81 979.5,1130.5C 726.5,1130.5 473.5,1130.5 220.5,1130.5C 203.001,958.512 185.501,786.512 168,614.5C 149.598,451.323 131.598,287.99 114,124.5C 112.171,109.881 111.004,95.2147 110.5,80.5 Z"/></g>
<g><path style="opacity:1" fill="#d82918" d="M 1075.5,95.5 C 757.833,94.1667 440.167,94.1667 122.5,95.5C 121.957,95.44 121.624,95.1067 121.5,94.5C 439.833,93.1667 758.167,93.1667 1076.5,94.5C 1076.38,95.1067 1076.04,95.44 1075.5,95.5 Z"/></g>
<g><path style="opacity:1" fill="#e82c1a" d="M 1075.5,95.5 C 1053.93,139.403 1024.93,177.903 988.5,211C 942.046,251.414 889.712,282.414 831.5,304C 731.028,339.975 627.694,351.975 521.5,340C 425.138,329.662 336.471,298.329 255.5,246C 208.869,213.704 170.036,173.87 139,126.5C 132.966,116.43 127.466,106.097 122.5,95.5C 440.167,94.1667 757.833,94.1667 1075.5,95.5 Z"/></g>
<g><path style="opacity:1" fill="#1c0fb6" d="M 854.5,600.5 C 804.669,601.499 754.669,601.832 704.5,601.5C 575.5,601.5 446.5,601.5 317.5,601.5C 317.5,582.5 317.5,563.5 317.5,544.5C 342.502,544.667 367.502,544.5 392.5,544C 403.93,538.893 414.596,532.56 424.5,525C 448.276,503.622 472.609,482.955 497.5,463C 542.376,431.686 592.042,420.352 646.5,429C 696.953,432.812 742.286,449.812 782.5,480C 819.139,512.417 843.139,552.584 854.5,600.5 Z"/></g>
<g><path style="opacity:1" fill="#08032b" d="M 854.5,600.5 C 855.043,600.56 855.376,600.893 855.5,601.5C 805.002,602.831 754.668,602.831 704.5,601.5C 754.669,601.832 804.669,601.499 854.5,600.5 Z"/></g>
<g><path style="opacity:1" fill="#fcfcfc" d="M 408.5,608.5 C 534.167,608.5 659.833,608.5 785.5,608.5C 786.167,610.819 786.334,613.153 786,615.5C 779.919,624.582 777.419,634.582 778.5,645.5C 776.692,645.509 775.025,645.009 773.5,644C 768.111,639.611 762.444,635.611 756.5,632C 749.996,629.599 743.329,627.765 736.5,626.5C 732.314,627.046 728.314,628.213 724.5,630C 717.167,635 709.833,640 702.5,645C 696.28,647.789 689.946,648.123 683.5,646C 674.5,641 665.5,636 656.5,631C 647.071,626.136 637.404,625.469 627.5,629C 615.748,635.543 603.748,641.543 591.5,647C 585.86,647.905 580.36,647.405 575,645.5C 565.942,641.055 557.109,636.222 548.5,631C 540.388,627.325 532.055,626.658 523.5,629C 515.676,632.745 508.009,636.745 500.5,641C 492.093,645.803 483.426,646.47 474.5,643C 463.15,636.823 451.484,631.489 439.5,627C 431.424,625.258 424.091,626.758 417.5,631.5C 414.562,626.72 411.395,622.053 408,617.5C 407.505,614.469 407.671,611.469 408.5,608.5 Z"/></g>
<g><path style="opacity:1" fill="#e82c1a" d="M 374.5,1103.5 C 374.5,1109.83 374.5,1116.17 374.5,1122.5C 325.5,1122.5 276.5,1122.5 227.5,1122.5C 210.495,952.136 193.162,781.803 175.5,611.5C 226.834,611.333 278.168,611.5 329.5,612C 305.608,634.623 304.274,658.623 325.5,684C 329.38,687.388 333.38,690.554 337.5,693.5C 323.637,704.569 318.137,718.902 321,736.5C 324.124,750.108 331.624,760.441 343.5,767.5C 325.286,784.681 322.786,804.014 336,825.5C 339.867,829.702 344.033,833.535 348.5,837C 337.813,847.733 333.979,860.566 337,875.5C 340.155,885.993 346.322,894.159 355.5,900C 342.087,916.192 340.92,933.359 352,951.5C 356.607,958.275 362.107,964.275 368.5,969.5C 369.298,971.078 369.798,972.744 370,974.5C 372.088,1017.48 373.588,1060.48 374.5,1103.5 Z"/></g>
<g><path style="opacity:1" fill="#787815" d="M 802.5,613.5 C 819.992,612.503 837.659,612.17 855.5,612.5C 855.784,614.415 855.451,616.081 854.5,617.5C 854.5,616.167 854.5,614.833 854.5,613.5C 837.167,613.5 819.833,613.5 802.5,613.5 Z"/></g>
<g><path style="opacity:1" fill="#e82c1a" d="M 865.5,612.5 C 918.833,612.5 972.167,612.5 1025.5,612.5C 1007.94,782.517 990.276,952.517 972.5,1122.5C 907.163,1122.83 841.83,1122.5 776.5,1121.5C 789.85,1099.14 800.183,1075.47 807.5,1050.5C 816.126,1016.81 813.293,984.146 799,952.5C 797.899,943.461 799.899,935.128 805,927.5C 815.677,911.488 825.343,894.822 834,877.5C 843.59,856.645 844.924,835.312 838,813.5C 834.711,807.257 831.711,800.924 829,794.5C 828.333,790.5 828.333,786.5 829,782.5C 831.121,778.712 833.954,775.545 837.5,773C 859.836,759.834 881.836,746.168 903.5,732C 904.99,731.255 905.99,730.088 906.5,728.5C 904.644,721.076 902.477,713.742 900,706.5C 899.161,705.376 897.994,704.709 896.5,704.5C 874.106,711.298 851.773,718.298 829.5,725.5C 829.167,724.833 828.833,724.167 828.5,723.5C 833.036,705.113 833.703,686.613 830.5,668C 853.732,656.909 865.399,638.409 865.5,612.5 Z"/></g>
<g><path style="opacity:1" fill="#e8e928" d="M 346.5,613.5 C 357.172,613.333 367.839,613.5 378.5,614C 383.716,614.554 388.716,615.887 393.5,618C 409.451,631.843 413.951,648.676 407,668.5C 401.068,677.766 393.235,684.932 383.5,690C 389.744,692.815 396.077,695.482 402.5,698C 414.449,707.954 418.283,720.454 414,735.5C 410.15,747.017 402.983,755.851 392.5,762C 408.968,769.636 418.302,782.47 420.5,800.5C 419.234,813.599 412.9,823.432 401.5,830C 423.834,839.839 431,856.339 423,879.5C 418.125,886.042 412.292,891.542 405.5,896C 427.893,905.287 434.393,921.121 425,943.5C 421.829,950.338 417.495,956.338 412,961.5C 411.833,964.667 411.667,967.833 411.5,971C 415.298,1020.47 418.631,1069.97 421.5,1119.5C 409.5,1119.5 397.5,1119.5 385.5,1119.5C 384.478,1068.46 382.645,1017.46 380,966.5C 375.054,961.554 370.054,956.554 365,951.5C 359.168,944.341 356.001,936.174 355.5,927C 354.996,919.178 357.663,912.678 363.5,907.5C 367.352,903.814 371.352,900.314 375.5,897C 367.016,894.51 359.516,890.343 353,884.5C 342.673,868.434 344.84,854.268 359.5,842C 364.326,839.754 368.992,837.254 373.5,834.5C 362.355,832.512 352.855,827.512 345,819.5C 334.491,802.742 336.657,787.909 351.5,775C 359.271,771.115 367.271,767.781 375.5,765C 368.877,763.452 362.211,762.118 355.5,761C 340.189,755.171 331.856,744.005 330.5,727.5C 330.895,717.544 334.895,709.377 342.5,703C 349.337,698.747 356.337,694.747 363.5,691C 348.36,688.187 336.193,680.687 327,668.5C 316.768,648.517 320.601,631.684 338.5,618C 341.099,616.205 343.766,614.705 346.5,613.5 Z"/></g>
<g><path style="opacity:1" fill="#e7e828" d="M 802.5,613.5 C 819.833,613.5 837.167,613.5 854.5,613.5C 854.5,614.833 854.5,616.167 854.5,617.5C 853.758,631.15 848.092,642.317 837.5,651C 831.27,654.945 824.936,658.612 818.5,662C 825.34,689.138 823.007,715.471 811.5,741C 811.833,741.5 812.167,742 812.5,742.5C 838.36,733.769 864.36,725.436 890.5,717.5C 891.167,717.833 891.833,718.167 892.5,718.5C 893.167,720.5 893.833,722.5 894.5,724.5C 873.834,738.988 852.501,752.488 830.5,765C 819.165,773.172 815.331,784.005 819,797.5C 823.264,807.032 827.264,816.699 831,826.5C 833.592,841.291 831.926,855.624 826,869.5C 816.678,888.152 806.344,906.152 795,923.5C 789.365,932.398 787.031,942.065 788,952.5C 805.235,991.553 805.902,1030.89 790,1070.5C 783.308,1086.89 775.308,1102.55 766,1117.5C 771.16,1102.35 776.16,1087.02 781,1071.5C 782.494,1064.87 783.66,1058.2 784.5,1051.5C 784.333,1049.17 784.167,1046.83 784,1044.5C 764.101,1010.81 755.768,974.474 759,935.5C 761.415,916.012 768.748,898.679 781,883.5C 784.757,873.545 786.757,863.212 787,852.5C 788.707,830.487 786.707,808.82 781,787.5C 772.637,770.155 762.303,754.155 750,739.5C 742.407,731.279 735.741,722.613 730,713.5C 749.974,722.903 770.141,731.903 790.5,740.5C 790.833,736.833 791.167,733.167 791.5,729.5C 788.896,698.212 788.063,666.879 789,635.5C 790.724,626.372 795.224,619.038 802.5,613.5 Z"/></g>
<g><path style="opacity:1" fill="#1c0fb5" d="M 427.5,633.5 C 433.678,633.107 439.678,633.94 445.5,636C 453.324,639.745 460.991,643.745 468.5,648C 478.624,653.513 488.957,653.846 499.5,649C 507.293,645.27 514.959,641.27 522.5,637C 526.014,635.371 529.68,634.205 533.5,633.5C 536.471,634.435 539.471,635.268 542.5,636C 550.995,640.413 559.328,645.08 567.5,650C 578.693,655.483 590.026,655.817 601.5,651C 609.995,646.587 618.328,641.92 626.5,637C 630.466,635.133 634.633,633.967 639,633.5C 643.554,634.43 648.054,635.597 652.5,637C 662.52,642.367 672.52,647.7 682.5,653C 691.556,655.438 700.222,654.438 708.5,650C 713.833,646 719.167,642 724.5,638C 728.312,636.007 732.312,634.507 736.5,633.5C 741.245,634.359 745.911,635.526 750.5,637C 758.751,642.042 766.918,647.208 775,652.5C 775.891,667.155 776.391,681.822 776.5,696.5C 773.053,696.186 769.72,695.352 766.5,694C 756.775,688.048 746.275,684.548 735,683.5C 724.947,683.776 715.781,686.776 707.5,692.5C 703.854,691.119 700.354,689.452 697,687.5C 697.92,690.146 699.42,692.646 701.5,695C 692.862,699.995 683.862,700.662 674.5,697C 666.5,692.667 658.5,688.333 650.5,684C 642.278,681.111 633.945,680.778 625.5,683C 614.803,688.016 604.136,693.016 593.5,698C 586.393,700.123 579.393,699.79 572.5,697C 564.112,692.139 555.446,687.806 546.5,684C 535.685,680.378 525.019,680.711 514.5,685C 506.014,688.743 497.681,692.743 489.5,697C 484.572,698.418 479.572,698.751 474.5,698C 466.045,694.273 457.712,690.273 449.5,686C 442.703,683.384 435.703,681.551 428.5,680.5C 422.141,681.009 416.307,683.009 411,686.5C 410.333,684.833 410.333,683.167 411,681.5C 415.054,676.058 418.054,670.058 420,663.5C 420.497,655.136 420.497,646.802 420,638.5C 422.426,636.548 424.926,634.881 427.5,633.5 Z"/></g>
<g><path style="opacity:1" fill="#fafafa" d="M 425.5,687.5 C 434.211,688.124 442.545,690.291 450.5,694C 459.338,700.091 469.004,703.925 479.5,705.5C 483.236,705.472 486.903,704.972 490.5,704C 500.715,699.059 511.048,694.392 521.5,690C 531.497,687.528 541.163,688.528 550.5,693C 556.5,696.333 562.5,699.667 568.5,703C 579.959,707.838 591.292,707.504 602.5,702C 611.378,697.394 620.378,693.061 629.5,689C 633.833,688.333 638.167,688.333 642.5,689C 652.381,692.607 661.714,697.274 670.5,703C 682.355,707.816 694.022,707.316 705.5,701.5C 709.036,706.052 712.703,710.552 716.5,715C 707.828,721.281 698.161,725.114 687.5,726.5C 684.774,726.318 682.107,725.818 679.5,725C 669.962,718.795 659.962,713.461 649.5,709C 636.747,705.691 624.747,707.357 613.5,714C 605.115,720.777 595.615,724.944 585,726.5C 581.43,726.456 577.93,725.956 574.5,725C 566.172,720.838 558.172,716.171 550.5,711C 538.818,705.053 527.152,705.053 515.5,711C 506.74,717.047 497.406,722.047 487.5,726C 483.167,726.667 478.833,726.667 474.5,726C 464.014,721.256 453.68,716.256 443.5,711C 437.168,708.124 430.835,707.958 424.5,710.5C 422.024,704.031 418.357,698.365 413.5,693.5C 417.108,690.531 421.108,688.531 425.5,687.5 Z"/></g>
<g><path style="opacity:1" fill="#f8f8f8" d="M 727.5,690.5 C 732.179,690.334 736.845,690.501 741.5,691C 750.387,694.109 759.054,697.776 767.5,702C 771.44,703.015 775.44,703.515 779.5,703.5C 779.719,710.583 779.719,717.583 779.5,724.5C 758.285,714.725 736.951,705.225 715.5,696C 719.481,693.838 723.481,692.005 727.5,690.5 Z"/></g>
<g><path style="opacity:1" fill="#1c0fb4" d="M 530.5,712.5 C 535.601,713.143 540.601,714.309 545.5,716C 553.5,720.667 561.5,725.333 569.5,730C 579.473,734.611 589.473,734.611 599.5,730C 607.672,725.08 616.005,720.413 624.5,716C 634.721,712.541 644.721,713.207 654.5,718C 660.17,720.833 665.503,724.166 670.5,728C 680.858,733.155 691.525,733.822 702.5,730C 708.272,727.031 714.105,724.197 720,721.5C 721.944,722.439 723.611,723.773 725,725.5C 733.024,735.357 740.857,745.357 748.5,755.5C 748.333,755.833 748.167,756.167 748,756.5C 740.587,754.101 733.087,753.935 725.5,756C 717.041,760.063 708.707,764.397 700.5,769C 693.289,771.878 685.956,772.212 678.5,770C 668.68,765.59 659.014,760.923 649.5,756C 641.908,753.339 634.241,753.006 626.5,755C 617.198,759.651 607.864,764.318 598.5,769C 590.193,772.282 581.86,772.282 573.5,769C 561.058,761.189 547.558,756.689 533,755.5C 529.097,755.515 525.264,756.015 521.5,757C 511.719,760.724 502.052,764.724 492.5,769C 485.813,772.208 479.146,772.208 472.5,769C 459.374,761.602 445.374,756.769 430.5,754.5C 424.158,755.205 418.324,757.205 413,760.5C 417.633,753.902 421.299,746.569 424,738.5C 424.656,730.768 425.823,723.268 427.5,716C 430.833,715.333 434.167,715.333 437.5,716C 447.564,719.865 457.23,724.532 466.5,730C 475.35,734.168 484.35,734.501 493.5,731C 500.989,727.759 507.989,723.759 514.5,719C 519.744,716.315 525.077,714.148 530.5,712.5 Z"/></g>
<g><path style="opacity:1" fill="#f9f9f9" d="M 629.5,760.5 C 634.179,760.334 638.845,760.501 643.5,761C 654.439,765.47 665.105,770.47 675.5,776C 684.917,778.181 694.25,777.847 703.5,775C 711.707,770.397 720.041,766.063 728.5,762C 738.48,760.204 747.813,761.871 756.5,767C 762.913,774.339 767.247,782.506 769.5,791.5C 756.54,782.177 742.207,779.01 726.5,782C 716.659,786.391 706.659,790.391 696.5,794C 690.083,794.87 683.749,794.536 677.5,793C 664.911,784.582 651.078,779.748 636,778.5C 630.287,778.636 624.787,779.803 619.5,782C 610.445,787.694 600.779,792.027 590.5,795C 584.328,795.893 578.328,795.227 572.5,793C 566.009,789.922 559.675,786.588 553.5,783C 547.063,780.278 540.396,778.445 533.5,777.5C 528.453,778.476 523.453,779.643 518.5,781C 508.292,786.772 497.625,791.439 486.5,795C 483.167,795.667 479.833,795.667 476.5,795C 465.398,790.95 454.398,786.617 443.5,782C 437.53,781.025 431.53,780.192 425.5,779.5C 423.12,774.57 420.12,770.07 416.5,766C 422.241,761.99 428.575,760.656 435.5,762C 447.91,764.954 459.743,769.454 471,775.5C 479.207,778.203 487.374,778.036 495.5,775C 504.924,770.414 514.591,766.414 524.5,763C 530.833,762.333 537.167,762.333 543.5,763C 552.854,766.176 561.854,770.176 570.5,775C 581.638,778.589 592.638,778.256 603.5,774C 612.102,769.2 620.769,764.7 629.5,760.5 Z"/></g>
<g><path style="opacity:1" fill="#1c0fb4" d="M 526.5,784.5 C 531.511,784.334 536.511,784.501 541.5,785C 550.897,788.532 559.897,792.865 568.5,798C 579.514,802.521 590.514,802.521 601.5,798C 608.833,794.333 616.167,790.667 623.5,787C 634.716,783.487 645.716,784.154 656.5,789C 664.076,792.955 671.743,796.622 679.5,800C 687.978,801.011 696.311,800.345 704.5,798C 713.19,793.548 722.19,789.882 731.5,787C 747.583,786.249 761.583,791.249 773.5,802C 775.774,811.36 776.774,820.86 776.5,830.5C 767.618,828.038 758.951,824.871 750.5,821C 741.509,819.036 732.509,819.036 723.5,821C 714.389,825.557 705.055,829.557 695.5,833C 691.167,833.667 686.833,833.667 682.5,833C 671.1,828.866 659.766,824.533 648.5,820C 640.842,818.046 633.176,818.046 625.5,820C 617.717,823.058 610.05,826.392 602.5,830C 594.048,833.649 585.382,834.315 576.5,832C 568.722,829.277 561.055,826.277 553.5,823C 542.249,818.928 530.916,818.595 519.5,822C 510.399,826.551 501.065,830.551 491.5,834C 487.5,834.667 483.5,834.667 479.5,834C 468.833,830 458.167,826 447.5,822C 440.562,820.445 433.562,819.279 426.5,818.5C 430.911,808.416 431.577,798.083 428.5,787.5C 432.122,786.341 435.789,786.175 439.5,787C 448.398,790.115 457.064,793.782 465.5,798C 476.159,802.594 486.826,802.594 497.5,798C 506.986,792.921 516.653,788.421 526.5,784.5 Z"/></g>
<g><path style="opacity:1" fill="#fafafa" d="M 629.5,824.5 C 634.511,824.334 639.511,824.501 644.5,825C 654.409,828.414 664.076,832.414 673.5,837C 685.435,840.838 697.102,840.171 708.5,835C 714.93,831.451 721.596,828.451 728.5,826C 734.5,825.333 740.5,825.333 746.5,826C 756.167,829.833 765.833,833.667 775.5,837.5C 776.833,843.833 776.833,850.167 775.5,856.5C 763.297,847.533 749.631,843.366 734.5,844C 725.531,846.545 716.864,849.879 708.5,854C 701.315,856.275 693.982,856.942 686.5,856C 674.457,850.811 662.124,846.477 649.5,843C 640.358,841.955 631.358,842.621 622.5,845C 613.979,848.729 605.312,852.062 596.5,855C 590.5,855.667 584.5,855.667 578.5,855C 569.099,851.532 559.765,847.866 550.5,844C 540.828,840.667 531.162,840.667 521.5,844C 511.978,848.063 502.311,851.729 492.5,855C 487.167,855.667 481.833,855.667 476.5,855C 467.177,851.673 457.843,848.34 448.5,845C 443.215,843.974 437.882,843.307 432.5,843C 429.461,837.27 425.461,832.27 420.5,828C 421.623,826.956 422.956,826.29 424.5,826C 435.201,825.257 445.534,826.923 455.5,831C 464.886,836.198 474.886,839.364 485.5,840.5C 491.035,840.283 496.369,839.116 501.5,837C 509.05,833.392 516.717,830.058 524.5,827C 531.833,826.333 539.167,826.333 546.5,827C 555.912,830.471 565.246,834.137 574.5,838C 585.489,840.578 596.156,839.578 606.5,835C 614.257,831.451 621.924,827.951 629.5,824.5 Z"/></g>
<g><path style="opacity:1" fill="#1c0fb4" d="M 530.5,847.5 C 534.514,847.334 538.514,847.501 542.5,848C 553.157,851.162 563.49,855.162 573.5,860C 582.506,861.959 591.506,861.959 600.5,860C 610.056,856.056 619.723,852.389 629.5,849C 640.059,847.766 650.392,848.766 660.5,852C 668.721,855.61 677.054,858.943 685.5,862C 693.623,862.848 701.623,862.182 709.5,860C 717.955,856.105 726.622,852.772 735.5,850C 750.382,849.526 763.549,854.026 775,863.5C 775.052,873.061 771.552,881.061 764.5,887.5C 753.473,881.861 741.806,880.028 729.5,882C 721.483,884.508 713.816,887.841 706.5,892C 697.599,894.869 688.599,895.202 679.5,893C 671.5,889.667 663.5,886.333 655.5,883C 646.249,880.172 636.916,879.838 627.5,882C 617.938,886.282 608.271,890.282 598.5,894C 592.5,894.667 586.5,894.667 580.5,894C 571.577,890.47 562.577,887.137 553.5,884C 542.491,880.713 531.491,880.713 520.5,884C 509.412,888.919 497.912,892.419 486,894.5C 482.765,894.418 479.598,893.918 476.5,893C 463.127,886.819 449.127,882.986 434.5,881.5C 436.038,875.272 437.038,868.938 437.5,862.5C 437.126,858.1 436.459,853.767 435.5,849.5C 438.85,849.335 442.183,849.502 445.5,850C 454.167,853.333 462.833,856.667 471.5,860C 481.257,862.203 490.924,861.869 500.5,859C 510.497,854.821 520.497,850.988 530.5,847.5 Z"/></g>
<g><path style="opacity:1" fill="#fafafa" d="M 632.5,886.5 C 637.844,886.334 643.177,886.501 648.5,887C 658.49,890.994 668.49,894.994 678.5,899C 685.767,900.515 693.101,900.848 700.5,900C 710.725,896.554 720.725,892.554 730.5,888C 740.913,886.465 750.913,887.798 760.5,892C 760.957,892.414 761.291,892.914 761.5,893.5C 758.889,898.388 756.555,903.388 754.5,908.5C 747.701,905.958 740.701,905.124 733.5,906C 723.953,909.106 714.62,912.773 705.5,917C 698.89,918.441 692.224,918.774 685.5,918C 677.087,914.862 668.754,911.529 660.5,908C 648.653,904.324 636.653,903.657 624.5,906C 614.944,909.944 605.277,913.611 595.5,917C 589.5,917.667 583.5,917.667 577.5,917C 568.167,913.333 558.833,909.667 549.5,906C 541.269,903.131 532.936,902.797 524.5,905C 513.833,909 503.167,913 492.5,917C 486.833,917.667 481.167,917.667 475.5,917C 461.989,911.107 447.989,906.94 433.5,904.5C 431.183,900.518 428.183,897.185 424.5,894.5C 426.865,890.276 430.365,887.943 435,887.5C 449.073,889.302 462.573,893.135 475.5,899C 483.572,900.956 491.572,900.623 499.5,898C 506.833,895.333 514.167,892.667 521.5,890C 530.74,887.119 540.073,886.786 549.5,889C 559.5,892.667 569.5,896.333 579.5,900C 586.889,900.801 594.223,900.467 601.5,899C 612.148,895.333 622.482,891.166 632.5,886.5 Z"/></g>
<g><path style="opacity:1" fill="#1c0fb4" d="M 529.5,909.5 C 535.221,909.369 540.888,909.869 546.5,911C 554.5,914.333 562.5,917.667 570.5,921C 581.514,924.298 592.514,924.298 603.5,921C 611.955,917.105 620.622,913.772 629.5,911C 637.548,910.225 645.548,910.558 653.5,912C 663.047,915.106 672.38,918.773 681.5,923C 689.494,924.95 697.494,924.95 705.5,923C 715.066,919.049 724.733,915.383 734.5,912C 740.577,911.512 746.577,912.012 752.5,913.5C 751.656,919.547 750.489,925.547 749,931.5C 748.501,935.486 748.334,939.486 748.5,943.5C 733.989,941.768 720.656,944.935 708.5,953C 700.123,956.298 691.457,957.298 682.5,956C 672.943,952.888 663.61,949.221 654.5,945C 645.593,942.149 636.593,941.816 627.5,944C 617.725,948.554 607.725,952.554 597.5,956C 591.833,956.667 586.167,956.667 580.5,956C 571.177,952.673 561.843,949.34 552.5,946C 541.824,942.71 531.158,942.71 520.5,946C 512.167,949 503.833,952 495.5,955C 490.225,956.359 484.891,956.692 479.5,956C 465.443,950.592 451.11,946.092 436.5,942.5C 439.913,932.574 440.246,922.574 437.5,912.5C 439.765,911.353 442.098,911.186 444.5,912C 452.566,914.8 460.566,917.8 468.5,921C 477.741,923.86 487.075,924.194 496.5,922C 507.598,917.771 518.598,913.605 529.5,909.5 Z"/></g>
<g><path style="opacity:1" fill="#fbfbfb" d="M 631.5,948.5 C 636.844,948.334 642.177,948.501 647.5,949C 657.648,952.605 667.648,956.605 677.5,961C 686.158,962.962 694.825,962.962 703.5,961C 712.167,957.333 720.833,953.667 729.5,950C 735.491,949.501 741.491,949.334 747.5,949.5C 747.505,960.212 748.171,970.879 749.5,981.5C 640.5,981.5 531.5,981.5 422.5,981.5C 422.334,976.156 422.501,970.823 423,965.5C 427.473,961.191 430.973,956.191 433.5,950.5C 437.826,949.565 442.16,949.732 446.5,951C 455.985,953.939 465.319,957.273 474.5,961C 481.812,962.822 489.145,962.822 496.5,961C 509.296,955.234 522.629,951.401 536.5,949.5C 540.541,949.673 544.541,950.173 548.5,951C 557.609,954.055 566.609,957.389 575.5,961C 584.494,962.959 593.494,962.959 602.5,961C 612.256,956.782 621.923,952.615 631.5,948.5 Z"/></g>
<g><path style="opacity:1" fill="#420d08" d="M 374.5,1103.5 C 375.491,1109.98 375.824,1116.65 375.5,1123.5C 325.997,1123.83 276.664,1123.5 227.5,1122.5C 276.5,1122.5 325.5,1122.5 374.5,1122.5C 374.5,1116.17 374.5,1109.83 374.5,1103.5 Z"/></g>
<g><path style="opacity:1" fill="#05050a" d="M 954.5,1241.5 C 927.338,1242.5 900.005,1242.83 872.5,1242.5C 871.985,1240.11 871.319,1237.77 870.5,1235.5C 893.502,1235.67 916.502,1235.5 939.5,1235C 927.273,1221.94 915.606,1208.44 904.5,1194.5C 916.65,1181.18 928.983,1168.02 941.5,1155C 899.167,1154.33 856.833,1154.33 814.5,1155C 811.876,1155.58 811.209,1156.91 812.5,1159C 823.833,1167.34 835.833,1174.67 848.5,1181C 853.155,1181.5 857.821,1181.67 862.5,1181.5C 861.68,1185.14 863.013,1187.48 866.5,1188.5C 867.499,1200.15 867.832,1211.81 867.5,1223.5C 865.864,1218.89 863.864,1214.56 861.5,1210.5C 861.5,1202.83 861.5,1195.17 861.5,1187.5C 688.833,1187.5 516.167,1187.5 343.5,1187.5C 343.5,1213.83 343.5,1240.17 343.5,1266.5C 516.167,1266.5 688.833,1266.5 861.5,1266.5C 861.5,1256.5 861.5,1246.5 861.5,1236.5C 862.5,1236.5 863.5,1236.5 864.5,1236.5C 863.599,1240.24 864.932,1242.24 868.5,1242.5C 868.5,1242.83 868.5,1243.17 868.5,1243.5C 868.5,1254.5 868.5,1265.5 868.5,1276.5C 866.167,1276.5 863.833,1276.5 861.5,1276.5C 861.737,1275.21 861.404,1274.21 860.5,1273.5C 686.001,1272.5 511.334,1272.17 336.5,1272.5C 336.5,1270.17 336.5,1267.83 336.5,1265.5C 336.5,1256.17 336.5,1246.83 336.5,1237.5C 307.492,1237.83 278.492,1237.5 249.5,1236.5C 262.931,1220.65 276.598,1204.98 290.5,1189.5C 275.65,1173.82 260.983,1157.98 246.5,1142C 295.532,1141.03 344.532,1141.36 393.5,1143C 397.406,1143.97 399.573,1146.47 400,1150.5C 402.369,1160.71 403.869,1171.05 404.5,1181.5C 536.167,1181.5 667.833,1181.5 799.5,1181.5C 801.267,1171.56 802.601,1161.56 803.5,1151.5C 807.375,1149.82 811.375,1148.32 815.5,1147C 862.839,1146.36 910.172,1146.7 957.5,1148C 943.154,1163.68 928.82,1179.35 914.5,1195C 928.03,1210.36 941.363,1225.86 954.5,1241.5 Z"/></g>
<g><path style="opacity:1" fill="#1c0fb4" d="M 384.5,1158.5 C 370.069,1169.3 354.235,1177.63 337,1183.5C 336.5,1198.83 336.333,1214.16 336.5,1229.5C 312.994,1229.83 289.661,1229.5 266.5,1228.5C 277.998,1215.5 289.331,1202.33 300.5,1189C 288.295,1176.3 276.295,1163.46 264.5,1150.5C 304.33,1149.5 344.33,1149.17 384.5,1149.5C 384.5,1152.5 384.5,1155.5 384.5,1158.5 Z"/></g>
<g><path style="opacity:1" fill="#12097a" d="M 384.5,1158.5 C 384.5,1155.5 384.5,1152.5 384.5,1149.5C 344.33,1149.17 304.33,1149.5 264.5,1150.5C 263.957,1150.44 263.624,1150.11 263.5,1149.5C 304.496,1148.33 345.496,1148.17 386.5,1149C 388.167,1149.33 389.833,1149.67 391.5,1150C 392.022,1150.56 392.355,1151.23 392.5,1152C 390.269,1154.73 387.602,1156.9 384.5,1158.5 Z"/></g>
<g><path style="opacity:1" fill="#0404b6" d="M 870.5,1235.5 C 869.09,1231.6 868.09,1227.6 867.5,1223.5C 867.832,1211.81 867.499,1200.15 866.5,1188.5C 863.013,1187.48 861.68,1185.14 862.5,1181.5C 857.821,1181.67 853.155,1181.5 848.5,1181C 835.833,1174.67 823.833,1167.34 812.5,1159C 811.209,1156.91 811.876,1155.58 814.5,1155C 856.833,1154.33 899.167,1154.33 941.5,1155C 928.983,1168.02 916.65,1181.18 904.5,1194.5C 915.606,1208.44 927.273,1221.94 939.5,1235C 916.502,1235.5 893.502,1235.67 870.5,1235.5 Z"/></g>
<g><path style="opacity:1" fill="#f8f8f8" d="M 393.5,1160.5 C 395.721,1167.2 397.054,1174.2 397.5,1181.5C 385.495,1181.67 373.495,1181.5 361.5,1181C 373.08,1175.39 383.747,1168.56 393.5,1160.5 Z"/></g>
<g><path style="opacity:1" fill="#f5f5f5" d="M 809.5,1165.5 C 817.012,1170.84 824.679,1176 832.5,1181C 824.173,1181.5 815.84,1181.67 807.5,1181.5C 807.517,1176.07 808.183,1170.74 809.5,1165.5 Z"/></g>
<g><path style="opacity:1" fill="#1e10b6" d="M 861.5,1210.5 C 858.881,1210.23 856.381,1210.56 854,1211.5C 850.932,1221.54 847.766,1231.54 844.5,1241.5C 849.743,1243.6 852.41,1241.93 852.5,1236.5C 855.5,1236.5 858.5,1236.5 861.5,1236.5C 861.5,1246.5 861.5,1256.5 861.5,1266.5C 688.833,1266.5 516.167,1266.5 343.5,1266.5C 343.5,1240.17 343.5,1213.83 343.5,1187.5C 516.167,1187.5 688.833,1187.5 861.5,1187.5C 861.5,1195.17 861.5,1202.83 861.5,1210.5 Z"/></g>
<g><path style="opacity:1" fill="#ebf031" d="M 376.5,1210.5 C 382.593,1210.14 388.593,1210.64 394.5,1212C 399.757,1217.97 399.757,1223.97 394.5,1230C 390.605,1231.27 386.605,1231.77 382.5,1231.5C 382.5,1235.17 382.5,1238.83 382.5,1242.5C 380.5,1242.5 378.5,1242.5 376.5,1242.5C 376.5,1231.83 376.5,1221.17 376.5,1210.5 Z"/></g>
<g><path style="opacity:1" fill="#e6ea36" d="M 406.5,1210.5 C 409.448,1210.22 412.281,1210.56 415,1211.5C 418.068,1221.54 421.234,1231.54 424.5,1241.5C 419.257,1243.6 416.59,1241.93 416.5,1236.5C 412.5,1236.5 408.5,1236.5 404.5,1236.5C 404.41,1241.93 401.743,1243.6 396.5,1241.5C 399.843,1231.14 403.176,1220.81 406.5,1210.5 Z"/></g>
<g><path style="opacity:1" fill="#e9ed33" d="M 427.5,1210.5 C 446.877,1207.71 454.71,1215.71 451,1234.5C 448.889,1238.94 445.389,1241.44 440.5,1242C 436.179,1242.5 431.846,1242.67 427.5,1242.5C 427.5,1231.83 427.5,1221.17 427.5,1210.5 Z"/></g>
<g><path style="opacity:1" fill="#e6ea36" d="M 464.5,1210.5 C 467.448,1210.22 470.281,1210.56 473,1211.5C 476.068,1221.54 479.234,1231.54 482.5,1241.5C 477.257,1243.6 474.59,1241.93 474.5,1236.5C 470.5,1236.5 466.5,1236.5 462.5,1236.5C 462.41,1241.93 459.743,1243.6 454.5,1241.5C 457.843,1231.14 461.176,1220.81 464.5,1210.5 Z"/></g>
<g><path style="opacity:1" fill="#ebf031" d="M 485.5,1210.5 C 488.247,1210.19 490.914,1210.52 493.5,1211.5C 496.394,1218.29 499.56,1224.95 503,1231.5C 503.5,1224.51 503.666,1217.51 503.5,1210.5C 505.5,1210.5 507.5,1210.5 509.5,1210.5C 509.5,1221.17 509.5,1231.83 509.5,1242.5C 506.753,1242.81 504.086,1242.48 501.5,1241.5C 498.606,1234.71 495.44,1228.05 492,1221.5C 491.5,1228.49 491.334,1235.49 491.5,1242.5C 489.5,1242.5 487.5,1242.5 485.5,1242.5C 485.5,1231.83 485.5,1221.17 485.5,1210.5 Z"/></g>
<g><path style="opacity:1" fill="#e8ec34" d="M 524.5,1209.5 C 528.98,1209.27 533.313,1209.93 537.5,1211.5C 538.647,1213.76 538.814,1216.1 538,1218.5C 531.082,1213.58 525.416,1214.58 521,1221.5C 518.856,1231.85 523.023,1236.85 533.5,1236.5C 533.5,1234.5 533.5,1232.5 533.5,1230.5C 532.167,1230.5 530.833,1230.5 529.5,1230.5C 529.5,1228.5 529.5,1226.5 529.5,1224.5C 532.833,1224.5 536.167,1224.5 539.5,1224.5C 539.805,1229.76 539.471,1234.93 538.5,1240C 523.811,1246.13 515.811,1241.3 514.5,1225.5C 514.326,1217.82 517.66,1212.49 524.5,1209.5 Z"/></g>
<g><path style="opacity:1" fill="#e9ed33" d="M 558.5,1210.5 C 560.5,1210.5 562.5,1210.5 564.5,1210.5C 564.335,1214.18 564.501,1217.85 565,1221.5C 568.517,1218.28 571.684,1214.78 574.5,1211C 577.5,1210.33 580.5,1210.33 583.5,1211C 578.611,1215.39 574.278,1220.22 570.5,1225.5C 574.979,1231.15 579.646,1236.65 584.5,1242C 581.5,1242.67 578.5,1242.67 575.5,1242C 571.631,1238.47 568.131,1234.63 565,1230.5C 564.501,1234.49 564.334,1238.49 564.5,1242.5C 562.5,1242.5 560.5,1242.5 558.5,1242.5C 558.5,1231.83 558.5,1221.17 558.5,1210.5 Z"/></g>
<g><path style="opacity:1" fill="#e5e938" d="M 592.5,1209.5 C 601.176,1208.1 607.01,1211.43 610,1219.5C 611.532,1227.06 610.032,1233.89 605.5,1240C 594.389,1245.36 587.223,1242.19 584,1230.5C 581.934,1221.32 584.767,1214.32 592.5,1209.5 Z"/></g>
<g><path style="opacity:1" fill="#edf32d" d="M 612.5,1210.5 C 620.5,1210.5 628.5,1210.5 636.5,1210.5C 636.5,1212.5 636.5,1214.5 636.5,1216.5C 633.5,1216.5 630.5,1216.5 627.5,1216.5C 627.5,1225.17 627.5,1233.83 627.5,1242.5C 625.5,1242.5 623.5,1242.5 621.5,1242.5C 621.5,1233.83 621.5,1225.17 621.5,1216.5C 618.5,1216.5 615.5,1216.5 612.5,1216.5C 612.5,1214.5 612.5,1212.5 612.5,1210.5 Z"/></g>
<g><path style="opacity:1" fill="#e6ea36" d="M 644.5,1210.5 C 647.448,1210.22 650.281,1210.56 653,1211.5C 656.068,1221.54 659.234,1231.54 662.5,1241.5C 657.257,1243.6 654.59,1241.93 654.5,1236.5C 650.5,1236.5 646.5,1236.5 642.5,1236.5C 642.41,1241.93 639.743,1243.6 634.5,1241.5C 637.843,1231.14 641.176,1220.81 644.5,1210.5 Z"/></g>
<g><path style="opacity:1" fill="#edf32d" d="M 675.5,1210.5 C 683.5,1210.5 691.5,1210.5 699.5,1210.5C 699.5,1212.5 699.5,1214.5 699.5,1216.5C 696.5,1216.5 693.5,1216.5 690.5,1216.5C 690.5,1225.17 690.5,1233.83 690.5,1242.5C 688.5,1242.5 686.5,1242.5 684.5,1242.5C 684.5,1233.83 684.5,1225.17 684.5,1216.5C 681.5,1216.5 678.5,1216.5 675.5,1216.5C 675.5,1214.5 675.5,1212.5 675.5,1210.5 Z"/></g>
<g><path style="opacity:1" fill="#edf32d" d="M 703.5,1210.5 C 709.833,1210.5 716.167,1210.5 722.5,1210.5C 722.5,1212.5 722.5,1214.5 722.5,1216.5C 718.167,1216.5 713.833,1216.5 709.5,1216.5C 709.5,1218.5 709.5,1220.5 709.5,1222.5C 713.5,1222.5 717.5,1222.5 721.5,1222.5C 721.5,1224.5 721.5,1226.5 721.5,1228.5C 717.5,1228.5 713.5,1228.5 709.5,1228.5C 709.5,1231.17 709.5,1233.83 709.5,1236.5C 713.833,1236.5 718.167,1236.5 722.5,1236.5C 722.5,1238.5 722.5,1240.5 722.5,1242.5C 716.167,1242.5 709.833,1242.5 703.5,1242.5C 703.5,1231.83 703.5,1221.17 703.5,1210.5 Z"/></g>
<g><path style="opacity:1" fill="#e9ed33" d="M 728.5,1210.5 C 733.511,1210.33 738.511,1210.5 743.5,1211C 747.084,1212.66 748.751,1215.5 748.5,1219.5C 748.617,1222.6 747.617,1225.26 745.5,1227.5C 747.695,1232.08 749.695,1236.75 751.5,1241.5C 749.257,1242.47 746.924,1242.81 744.5,1242.5C 744.035,1238.94 742.868,1235.61 741,1232.5C 739.103,1230.98 736.936,1230.32 734.5,1230.5C 734.5,1234.5 734.5,1238.5 734.5,1242.5C 732.5,1242.5 730.5,1242.5 728.5,1242.5C 728.5,1231.83 728.5,1221.17 728.5,1210.5 Z"/></g>
<g><path style="opacity:1" fill="#e6ea36" d="M 764.5,1209.5 C 768.273,1209.26 771.94,1209.76 775.5,1211C 777.457,1213.12 777.957,1215.62 777,1218.5C 770.782,1213.7 765.782,1214.7 762,1221.5C 759.638,1231.02 763.138,1235.85 772.5,1236C 774.329,1235.73 775.829,1234.89 777,1233.5C 778.412,1238.05 776.912,1240.89 772.5,1242C 763.485,1243.33 757.985,1239.5 756,1230.5C 754.068,1221.44 756.901,1214.44 764.5,1209.5 Z"/></g>
<g><path style="opacity:1" fill="#edf32d" d="M 782.5,1210.5 C 784.5,1210.5 786.5,1210.5 788.5,1210.5C 788.5,1221.17 788.5,1231.83 788.5,1242.5C 786.5,1242.5 784.5,1242.5 782.5,1242.5C 782.5,1231.83 782.5,1221.17 782.5,1210.5 Z"/></g>
<g><path style="opacity:1" fill="#ebf031" d="M 795.5,1210.5 C 798.247,1210.19 800.914,1210.52 803.5,1211.5C 806.394,1218.29 809.56,1224.95 813,1231.5C 813.5,1224.51 813.666,1217.51 813.5,1210.5C 815.5,1210.5 817.5,1210.5 819.5,1210.5C 819.5,1221.17 819.5,1231.83 819.5,1242.5C 816.753,1242.81 814.086,1242.48 811.5,1241.5C 808.606,1234.71 805.44,1228.05 802,1221.5C 801.5,1228.49 801.334,1235.49 801.5,1242.5C 799.5,1242.5 797.5,1242.5 795.5,1242.5C 795.5,1231.83 795.5,1221.17 795.5,1210.5 Z"/></g>
<g><path style="opacity:1" fill="#edf32d" d="M 822.5,1210.5 C 830.5,1210.5 838.5,1210.5 846.5,1210.5C 846.5,1212.5 846.5,1214.5 846.5,1216.5C 843.5,1216.5 840.5,1216.5 837.5,1216.5C 837.5,1225.17 837.5,1233.83 837.5,1242.5C 835.5,1242.5 833.5,1242.5 831.5,1242.5C 831.5,1233.83 831.5,1225.17 831.5,1216.5C 828.5,1216.5 825.5,1216.5 822.5,1216.5C 822.5,1214.5 822.5,1212.5 822.5,1210.5 Z"/></g>
<g><path style="opacity:1" fill="#e4e833" d="M 861.5,1210.5 C 863.864,1214.56 865.864,1218.89 867.5,1223.5C 868.09,1227.6 869.09,1231.6 870.5,1235.5C 871.319,1237.77 871.985,1240.11 872.5,1242.5C 871.167,1242.5 869.833,1242.5 868.5,1242.5C 864.932,1242.24 863.599,1240.24 864.5,1236.5C 863.5,1236.5 862.5,1236.5 861.5,1236.5C 858.5,1236.5 855.5,1236.5 852.5,1236.5C 852.41,1241.93 849.743,1243.6 844.5,1241.5C 847.766,1231.54 850.932,1221.54 854,1211.5C 856.381,1210.56 858.881,1210.23 861.5,1210.5 Z"/></g>
<g><path style="opacity:1" fill="#2616b4" d="M 382.5,1216.5 C 385.93,1216.11 389.096,1216.77 392,1218.5C 393.14,1221.53 392.306,1223.69 389.5,1225C 387.19,1225.5 384.857,1225.66 382.5,1225.5C 382.5,1222.5 382.5,1219.5 382.5,1216.5 Z"/></g>
<g><path style="opacity:1" fill="#2214b5" d="M 433.5,1216.5 C 444.879,1216.38 448.713,1221.72 445,1232.5C 441.873,1235.71 438.039,1237.04 433.5,1236.5C 433.5,1229.83 433.5,1223.17 433.5,1216.5 Z"/></g>
<g><path style="opacity:1" fill="#2818b3" d="M 594.5,1215.5 C 599.385,1214.86 602.552,1216.86 604,1221.5C 605.125,1226.4 604.291,1230.9 601.5,1235C 595.961,1237.81 592.128,1236.31 590,1230.5C 588.376,1224.39 589.876,1219.39 594.5,1215.5 Z"/></g>
<g><path style="opacity:1" fill="#2415b4" d="M 734.5,1216.5 C 736.527,1216.34 738.527,1216.5 740.5,1217C 743.167,1219.33 743.167,1221.67 740.5,1224C 738.527,1224.5 736.527,1224.66 734.5,1224.5C 734.5,1221.83 734.5,1219.17 734.5,1216.5 Z"/></g>
<g><path style="opacity:1" fill="#3520af" d="M 409.5,1219.5 C 410.497,1219.47 411.164,1219.97 411.5,1221C 412.566,1224.09 413.232,1227.26 413.5,1230.5C 411.5,1230.5 409.5,1230.5 407.5,1230.5C 408.008,1226.8 408.674,1223.14 409.5,1219.5 Z"/></g>
<g><path style="opacity:1" fill="#3520af" d="M 467.5,1219.5 C 468.497,1219.47 469.164,1219.97 469.5,1221C 470.566,1224.09 471.232,1227.26 471.5,1230.5C 469.5,1230.5 467.5,1230.5 465.5,1230.5C 466.008,1226.8 466.674,1223.14 467.5,1219.5 Z"/></g>
<g><path style="opacity:1" fill="#3520af" d="M 647.5,1219.5 C 648.497,1219.47 649.164,1219.97 649.5,1221C 650.566,1224.09 651.232,1227.26 651.5,1230.5C 649.5,1230.5 647.5,1230.5 645.5,1230.5C 646.008,1226.8 646.674,1223.14 647.5,1219.5 Z"/></g>
<g><path style="opacity:1" fill="#3520ae" d="M 857.5,1219.5 C 858.497,1219.47 859.164,1219.97 859.5,1221C 860.566,1224.09 861.232,1227.26 861.5,1230.5C 859.5,1230.5 857.5,1230.5 855.5,1230.5C 856.008,1226.8 856.674,1223.14 857.5,1219.5 Z"/></g>
<g><path style="opacity:1" fill="#0f0965" d="M 266.5,1228.5 C 289.661,1229.5 312.994,1229.83 336.5,1229.5C 312.67,1230.66 288.67,1230.83 264.5,1230C 265.044,1229.28 265.711,1228.78 266.5,1228.5 Z"/></g>
<g><path style="opacity:1" fill="#646464" d="M 954.5,1241.5 C 955.289,1241.78 955.956,1242.28 956.5,1243C 927.169,1243.5 897.835,1243.67 868.5,1243.5C 868.5,1243.17 868.5,1242.83 868.5,1242.5C 869.833,1242.5 871.167,1242.5 872.5,1242.5C 900.005,1242.83 927.338,1242.5 954.5,1241.5 Z"/></g>
<g><path style="opacity:1" fill="#424242" d="M 336.5,1265.5 C 336.5,1267.83 336.5,1270.17 336.5,1272.5C 511.334,1272.17 686.001,1272.5 860.5,1273.5C 685.5,1273.5 510.5,1273.5 335.5,1273.5C 335.194,1270.61 335.527,1267.95 336.5,1265.5 Z"/></g>
</svg>
